<?xml version="1.0" encoding="UTF-8" standalone="no"?>
<!-- Created with Inkscape (http://www.inkscape.org/) -->

<svg
   width="240.00041"
   height="208.13"
   viewBox="0 0 63.500104 55.067724"
   version="1.1"
   id="svg5"
   inkscape:version="1.2.2 (b0a8486541, 2022-12-01)"
   sodipodi:docname="OntoWeaver_logo__big.svg"
   xml:space="preserve"
   xmlns:inkscape="http://www.inkscape.org/namespaces/inkscape"
   xmlns:sodipodi="http://sodipodi.sourceforge.net/DTD/sodipodi-0.dtd"
   xmlns:xlink="http://www.w3.org/1999/xlink"
   xmlns="http://www.w3.org/2000/svg"
   xmlns:svg="http://www.w3.org/2000/svg"
   xmlns:rdf="http://www.w3.org/1999/02/22-rdf-syntax-ns#"
   xmlns:cc="http://creativecommons.org/ns#"
   xmlns:dc="http://purl.org/dc/elements/1.1/"><title
     id="title12141">OntoWeaver logo</title><sodipodi:namedview
     id="namedview7"
     pagecolor="#ffffff"
     bordercolor="#666666"
     borderopacity="1.0"
     inkscape:showpageshadow="2"
     inkscape:pageopacity="0.0"
     inkscape:pagecheckerboard="0"
     inkscape:deskcolor="#d1d1d1"
     inkscape:document-units="mm"
     showgrid="false"
     inkscape:zoom="1.4584"
     inkscape:cx="-166.62095"
     inkscape:cy="186.8486"
     inkscape:current-layer="g2813"
     showguides="false"><inkscape:grid
       type="axonomgrid"
       id="grid211"
       units="px"
       spacingy="1.3229166"
       gridanglex="30"
       empspacing="10"
       originx="152.63733"
       originy="26.53488" /><sodipodi:guide
       position="19.834447,31.869143"
       orientation="0,-1"
       id="guide3756"
       inkscape:locked="false" /><sodipodi:guide
       position="9.1541856,26.003353"
       orientation="1,0"
       id="guide3786"
       inkscape:locked="false" /><sodipodi:guide
       position="9.1541858,37.689975"
       orientation="0.70710678,0.70710678"
       id="guide3788"
       inkscape:locked="false"
       inkscape:label=""
       inkscape:color="rgb(0,134,229)" /><sodipodi:guide
       position="10.948907,35.895253"
       orientation="1,0"
       id="guide3792"
       inkscape:locked="false" /></sodipodi:namedview><defs
     id="defs2"><linearGradient
       inkscape:collect="always"
       id="linearGradient5592"><stop
         style="stop-color:#aa5b00;stop-opacity:1"
         offset="0"
         id="stop5588" /><stop
         style="stop-color:#d47100;stop-opacity:1"
         offset="1"
         id="stop5590" /></linearGradient><linearGradient
       inkscape:collect="always"
       id="linearGradient5446"><stop
         style="stop-color:#d47100;stop-opacity:1"
         offset="0"
         id="stop5442" /><stop
         style="stop-color:#aa5b00;stop-opacity:1"
         offset="1"
         id="stop5444" /></linearGradient><linearGradient
       inkscape:collect="always"
       xlink:href="#linearGradient5446"
       id="linearGradient5448"
       x1="49.599983"
       y1="19.172474"
       x2="50.763053"
       y2="19.172473"
       gradientUnits="userSpaceOnUse" /><linearGradient
       inkscape:collect="always"
       xlink:href="#linearGradient5592"
       id="linearGradient5594"
       x1="52.502735"
       y1="23.293537"
       x2="52.502735"
       y2="22.021757"
       gradientUnits="userSpaceOnUse" /></defs><g
     inkscape:label="Tabular"
     inkscape:groupmode="layer"
     id="layer1"
     transform="translate(46.804123,26.534916)" /><g
     inkscape:groupmode="layer"
     id="layer2"
     inkscape:label="Weave"
     transform="translate(46.804123,26.534916)" /><g
     inkscape:groupmode="layer"
     id="layer3"
     inkscape:label="Graph inter"
     style="display:none"
     transform="translate(46.804123,26.534916)"><g
       id="g10302"
       style="stroke:#b3b3b3;stroke-width:1.32292;stroke-dasharray:none"><path
         style="fill:none;fill-opacity:1;stroke:#b3b3b3;stroke-width:1.32292;stroke-linecap:butt;stroke-linejoin:bevel;stroke-dasharray:none;stroke-opacity:1"
         d="M 19.907376,95.911452 L 88.648139,109.14062 V 56.223955"
         id="path10082" /><path
         style="fill:none;fill-opacity:1;stroke:#b3b3b3;stroke-width:1.32292;stroke-linecap:butt;stroke-linejoin:bevel;stroke-dasharray:none;stroke-opacity:1"
         d="M 88.648139,109.14062 L 54.277757,155.4427"
         id="path10192"
         sodipodi:nodetypes="cc" /><path
         style="fill:none;fill-opacity:1;stroke:#b3b3b3;stroke-width:1.32292;stroke-linecap:butt;stroke-linejoin:bevel;stroke-dasharray:none;stroke-opacity:1"
         d="M 88.648139,109.14062 L 123.01852,168.67186 L 157.3889,122.36979"
         id="path10194" /><path
         style="fill:none;fill-opacity:1;stroke:#b3b3b3;stroke-width:1.32292;stroke-linecap:butt;stroke-linejoin:bevel;stroke-dasharray:none;stroke-opacity:1"
         d="M 157.3889,69.453121 L 123.01852,89.296869 L 157.3889,122.36978"
         id="path10200" /><path
         style="fill:none;fill-opacity:1;stroke:#b3b3b3;stroke-width:1.32292;stroke-linecap:butt;stroke-linejoin:bevel;stroke-dasharray:none;stroke-opacity:1"
         d="M 157.3889,122.36978 L 191.70407,130.20238"
         id="path10202"
         sodipodi:nodetypes="cc" /></g><g
       id="g10365"
       style="fill:#797979;fill-opacity:1;stroke:#797979;stroke-width:1.32292;stroke-dasharray:none;stroke-opacity:1"><circle
         style="fill:#797979;fill-opacity:1;stroke:#797979;stroke-width:1.32292;stroke-linecap:butt;stroke-linejoin:bevel;stroke-dasharray:none;stroke-opacity:1"
         id="path10012"
         cx="88.64814"
         cy="109.14062"
         r="3.4370382" /><use
         x="0"
         y="0"
         xlink:href="#path10012"
         id="use10014"
         transform="translate(34.370381,-19.843747)"
         style="fill:#797979;fill-opacity:1;stroke:#797979;stroke-width:1.32292;stroke-dasharray:none;stroke-opacity:1" /><use
         x="0"
         y="0"
         xlink:href="#path10012"
         id="use10016"
         transform="translate(-6.9393496e-7,-52.916662)"
         style="fill:#797979;fill-opacity:1;stroke:#797979;stroke-width:1.32292;stroke-dasharray:none;stroke-opacity:1" /><use
         x="0"
         y="0"
         xlink:href="#path10012"
         id="use10018"
         transform="translate(-68.740764,-13.229164)"
         style="fill:#797979;fill-opacity:1;stroke:#797979;stroke-width:1.32292;stroke-dasharray:none;stroke-opacity:1" /><use
         x="0"
         y="0"
         xlink:href="#path10012"
         id="use10020"
         transform="translate(-34.370382,46.302083)"
         style="fill:#797979;fill-opacity:1;stroke:#797979;stroke-width:1.32292;stroke-dasharray:none;stroke-opacity:1" /><use
         x="0"
         y="0"
         xlink:href="#path10012"
         id="use10022"
         transform="translate(34.370381,59.531249)"
         style="fill:#797979;fill-opacity:1;stroke:#797979;stroke-width:1.32292;stroke-dasharray:none;stroke-opacity:1" /><use
         x="0"
         y="0"
         xlink:href="#path10012"
         id="use10024"
         transform="translate(68.740762,13.229168)"
         style="fill:#797979;fill-opacity:1;stroke:#797979;stroke-width:1.32292;stroke-dasharray:none;stroke-opacity:1" /><use
         x="0"
         y="0"
         xlink:href="#path10012"
         id="use10026"
         transform="translate(103.05593,21.061764)"
         style="fill:#797979;fill-opacity:1;stroke:#797979;stroke-width:1.32292;stroke-dasharray:none;stroke-opacity:1" /><use
         x="0"
         y="0"
         xlink:href="#path10012"
         id="use10198"
         transform="translate(68.740762,-39.687496)"
         style="fill:#797979;fill-opacity:1;stroke:#797979;stroke-width:1.32292;stroke-dasharray:none;stroke-opacity:1" /></g></g><g
     inkscape:groupmode="layer"
     id="layer4"
     inkscape:label="Graph intra"
     transform="translate(46.804123,26.534916)" /><g
     id="g400"
     transform="matrix(0.20800964,0,0,0.20800964,-5.9086015e-6,3.3391423e-7)"><text
       xml:space="preserve"
       style="font-style:normal;font-variant:normal;font-weight:normal;font-stretch:normal;font-size:25.0668px;line-height:1.15;font-family:'TeX Gyre Adventor';-inkscape-font-specification:'TeX Gyre Adventor, Normal';font-variant-ligatures:normal;font-variant-caps:normal;font-variant-numeric:normal;font-variant-east-asian:normal;opacity:1;fill:black;fill-opacity:1;stroke:none;stroke-width:1.32293;stroke-linecap:butt;stroke-linejoin:bevel;stroke-dasharray:none;stroke-opacity:1"
       x="27.89093"
       y="233.70361"
       id="text11885"
       transform="translate(46.804122,26.534917)"><tspan
         sodipodi:role="line"
         id="tspan11883"
         style="font-style:normal;font-variant:normal;font-weight:normal;font-stretch:normal;font-size:25.0668px;font-family:'TeX Gyre Adventor';-inkscape-font-specification:'TeX Gyre Adventor, Normal';font-variant-ligatures:normal;font-variant-caps:normal;font-variant-numeric:normal;font-variant-east-asian:normal;fill:black;stroke:none;stroke-width:1.32293"
         x="27.89093"
         y="233.70361">OntoWeaver</tspan></text><path
       sodipodi:type="star"
       style="fill:#f4f4f4;fill-opacity:1;stroke:black;stroke-width:0.36148;stroke-linecap:butt;stroke-linejoin:bevel;stroke-dasharray:none;stroke-opacity:1"
       id="path11807"
       inkscape:flatsided="true"
       sodipodi:sides="6"
       sodipodi:cx="0"
       sodipodi:cy="0"
       sodipodi:r1="41.553246"
       sodipodi:r2="35.986168"
       sodipodi:arg1="1.5707963"
       sodipodi:arg2="2.0943951"
       inkscape:rounded="0"
       inkscape:randomized="0"
       d="M 1.1134149e-6,41.553246 L -35.986166,20.776624 L -35.986167,-20.776622 L -1.1134149e-6,-41.553246 L 35.986166,-20.776624 L 35.986167,20.776622 Z"
       transform="matrix(0,-3.6599273,3.6595132,0,152.63745,132.36825)" /><g
       id="g1191"
       transform="matrix(1,0,0,1.0023316,46.804122,26.118515)"
       style="fill:#448d87;fill-opacity:1;stroke:#045;stroke-width:0.528551;stroke-dasharray:none;stroke-opacity:1"><g
         id="g387"
         style="fill:#0e7e9c;fill-opacity:1;stroke:#045;stroke-width:0.528551;stroke-dasharray:none;stroke-opacity:1"><rect
           style="opacity:1;fill:#0e7e9c;fill-opacity:1;stroke:#045;stroke-width:0.528551;stroke-linecap:round;stroke-dasharray:none;stroke-opacity:1"
           id="rect265"
           width="32.079014"
           height="19.797588"
           x="89.793823"
           y="26.812218" /><path
           id="rect321"
           style="stroke-linecap:round"
           d="M 94.376541,46.609802 H 117.29013 V 178.59373 L 105.83334,189.15244 L 94.376541,178.59373 Z"
           sodipodi:nodetypes="cccccc" /></g><use
         x="0"
         y="0"
         xlink:href="#g387"
         id="use389"
         transform="translate(-68.74077)"
         style="fill:#448d87;fill-opacity:1;stroke:#045;stroke-width:0.528551;stroke-dasharray:none;stroke-opacity:1" /><use
         x="0"
         y="0"
         xlink:href="#g387"
         id="use391"
         transform="translate(-34.370388)"
         style="fill:#448d87;fill-opacity:1;stroke:#045;stroke-width:0.528551;stroke-dasharray:none;stroke-opacity:1" /><use
         x="0"
         y="0"
         xlink:href="#g387"
         id="use393"
         transform="translate(34.370375)"
         style="fill:#448d87;fill-opacity:1;stroke:#045;stroke-width:0.528551;stroke-dasharray:none;stroke-opacity:1" /><use
         x="0"
         y="0"
         xlink:href="#g387"
         id="use395"
         transform="translate(68.740756)"
         style="fill:#448d87;fill-opacity:1;stroke:#045;stroke-width:0.528551;stroke-dasharray:none;stroke-opacity:1" /></g><g
       id="g3904"
       transform="translate(0,0.25399224)"><g
         id="g2813"
         style="fill:#d47100;fill-opacity:1;stroke:#803300;stroke-opacity:1"
         transform="matrix(4.8074696,0,0,4.8074696,2.1767929e-5,-4.4950342e-6)"><path
           style="fill:url(#linearGradient5594);fill-opacity:1;stroke:#803300;stroke-width:0.1;stroke-linecap:round;stroke-linejoin:bevel;stroke-dasharray:none;stroke-opacity:1"
           d="M 50.708014,17.377751 L 54.29746,20.967195 V 23.243541 L 50.708016,23.198584 Z"
           id="path2764"
           sodipodi:nodetypes="ccccc" /><path
           style="fill:#d47100;fill-opacity:1;stroke:#803300;stroke-width:0.110072;stroke-linecap:round;stroke-linejoin:bevel;stroke-dasharray:none;stroke-opacity:1"
           d="M 48.43167,26.788028 H 50.708017 L 54.29746,23.198583 H 48.43167"
           id="path2666"
           sodipodi:nodetypes="cccc" /><path
           style="fill:url(#linearGradient5448);fill-opacity:1;stroke:#803300;stroke-width:0.110072;stroke-linecap:round;stroke-dasharray:none;stroke-opacity:1"
           d="M 48.43167,20.967195 H 50.708017 V 17.377751 H 48.43167"
           id="path2637"
           sodipodi:nodetypes="cccc" /></g><g
         id="g2662"
         style="fill:#d47100;fill-opacity:1;stroke:#803300;stroke-opacity:1"><path
           id="path2639"
           style="fill:#d47100;fill-opacity:1;stroke:#803300;stroke-width:0.529167;stroke-linecap:round;stroke-dasharray:none;stroke-opacity:1"
           d="M 61.499586,83.543005 V 100.79915 H 72.44057 H 95.353533 H 106.81126 V 83.543005 H 95.353533 H 72.44057 Z" /><path
           id="path2635"
           style="fill:#d47100;fill-opacity:1;stroke:#803300;stroke-width:0.529167;stroke-linecap:round;stroke-dasharray:none;stroke-opacity:1"
           d="M 233.2842,83.543005 H 209.92084 H 198.4656 V 100.79915 H 209.92084 H 233.2842"
           sodipodi:nodetypes="cccccc" /><path
           id="path2633"
           style="fill:#d47100;fill-opacity:1;stroke:#803300;stroke-width:0.529167;stroke-linecap:round;stroke-dasharray:none;stroke-opacity:1"
           d="M 129.72422,83.543005 V 100.79915 H 141.17946 H 164.09491 H 175.55015 V 83.543005 H 164.09491 H 141.17946 Z" /></g><g
         id="g2686"
         transform="translate(0,27.983479)"><path
           id="path2668"
           style="fill:#d47100;fill-opacity:1;stroke:#803300;stroke-width:0.529167;stroke-linecap:round;stroke-dasharray:none;stroke-opacity:1"
           d="M 164.09491,83.543004 V 100.79915 H 175.55015 H 198.4656 H 209.92084 V 83.543004 H 198.4656 H 175.55015 Z" /><path
           id="path2672"
           style="fill:#d47100;fill-opacity:1;stroke:#803300;stroke-width:0.529167;stroke-linecap:round;stroke-dasharray:none;stroke-opacity:1"
           d="M 95.353533,83.543004 V 100.79915 H 106.81126 H 129.72422 H 141.17946 V 83.543004 H 129.72422 H 106.81126 Z" /></g><use
         x="0"
         y="0"
         xlink:href="#g2813"
         id="use3754"
         transform="matrix(-1,0,0,1,305.04191,27.983478)" /><use
         x="0"
         y="0"
         xlink:href="#g2662"
         id="use3758"
         transform="matrix(-1,0,0,1,305.49231,55.966951)" /><use
         x="0"
         y="0"
         xlink:href="#g2813"
         id="use3760"
         transform="translate(0.21793703,55.966951)" /><use
         x="0"
         y="0"
         xlink:href="#g2686"
         id="use3762"
         transform="translate(0.21793703,55.966951)" /><path
         id="path2639-6"
         style="fill:#d47100;fill-opacity:1;stroke:#803300;stroke-width:0.529167;stroke-linecap:round;stroke-dasharray:none;stroke-opacity:1"
         d="M 72.957313,83.543007 H 61.499586 H 44.008501 L 52.636571,92.171079 L 44.008501,100.79915 H 61.499586 H 72.957313"
         sodipodi:nodetypes="ccccccc" /><path
         id="path3790"
         style="fill:#d47100;fill-opacity:1;stroke:#803300;stroke-width:0.529167;stroke-linecap:round;stroke-dasharray:none;stroke-opacity:1"
         d="M 72.160383,167.49344 H 61.499586 H 52.63657 L 44.008501,176.12151 L 52.63657,184.74958 H 61.499586 H 72.160383"
         sodipodi:nodetypes="ccccccc" /></g><g
       id="g11582"
       style="fill:#333;stroke:#333"
       transform="translate(46.804123,26.534916)"><path
         style="fill:none;fill-opacity:1;stroke:#333;stroke-width:1.44224;stroke-linecap:round;stroke-linejoin:bevel;stroke-dasharray:none;stroke-opacity:1"
         d="M 106.051,121.85711 L 71.680309,149.84058"
         id="path4408" /><path
         style="fill:none;fill-opacity:1;stroke:#333;stroke-width:1.44224;stroke-linecap:round;stroke-linejoin:bevel;stroke-dasharray:none;stroke-opacity:1"
         d="M 37.351298,65.890153 L 71.462371,93.87363"
         id="path4404" /><path
         style="fill:none;fill-opacity:1;stroke:#333;stroke-width:1.44224085;stroke-linecap:round;stroke-linejoin:bevel;stroke-dasharray:none;stroke-opacity:1"
         d="M 36.731253,121.85613 L 71.462372,93.873631 L 106.051,121.85711 L 174.57319,65.636161"
         id="path3960" /><path
         style="fill:none;fill-opacity:1;stroke:#333;stroke-width:1.44224085;stroke-linecap:round;stroke-linejoin:bevel;stroke-dasharray:none;stroke-opacity:1"
         d="M 105.83306,65.890153 L 106.051,121.85711 L 140.42168,149.84058"
         id="path4070" /><g
         id="path10012-3"
         style="fill:white;stroke:#1a1a1a;stroke-width:1.32292;stroke-dasharray:none"
         transform="translate(-2.9806441e-6,-1.322918)"><path
           style="color:black;solid-color:black;fill:#b3b3b3;stroke:#1a1a1a;stroke-width:1.32292;stroke-linejoin:bevel;stroke-dasharray:none"
           d="M 105.83307,60.876071 C 102.50493,60.876071 99.751033,63.631921 99.751033,66.960055 C 99.751033,70.28819 102.50493,73.042087 105.83307,73.042087 C 109.1612,73.042087 111.9151,70.28819 111.9151,66.960055 C 111.9151,63.631921 109.1612,60.876071 105.83307,60.876071 Z"
           id="path11608"
           sodipodi:nodetypes="sssss" /></g><use
         x="0"
         y="0"
         xlink:href="#path10012-3"
         id="use11557"
         transform="translate(-69.10181,56.219968)"
         style="fill:#333;stroke:#333" /><use
         x="0"
         y="0"
         xlink:href="#path10012-3"
         id="use11559"
         transform="translate(0.21793848,56.220944)"
         style="fill:#333;stroke:#333" /><use
         x="0"
         y="0"
         xlink:href="#path10012-3"
         id="use11563"
         transform="translate(34.588626,84.204422)"
         style="fill:#333;stroke:#333" /><use
         x="0"
         y="0"
         xlink:href="#path10012-3"
         id="use11565"
         transform="translate(68.740133)"
         style="fill:#333;stroke:#333" /><use
         x="0"
         y="0"
         xlink:href="#path10012-3"
         id="use11569"
         transform="translate(-34.37069,28.237471)"
         style="fill:#333;stroke:#333" /><use
         x="0"
         y="0"
         xlink:href="#path10012-3"
         id="use4348"
         transform="translate(-68.481764,0.25399274)"
         style="fill:#333;stroke:#333" /><use
         x="0"
         y="0"
         xlink:href="#path10012-3"
         id="use4406"
         transform="translate(-34.152753,84.204422)"
         style="fill:#333;stroke:#333" /></g><g
       aria-label="OntoWeaver"
       transform="translate(46.804122,26.534917)"
       id="text4493"
       style="font-size:25.0668px;line-height:1.15;font-family:'TeX Gyre Adventor';-inkscape-font-specification:'TeX Gyre Adventor, Normal';opacity:1;stroke-width:1.32293;stroke-linejoin:bevel"><path
         d="M 28.993869,224.32863 C 28.993869,229.71799 33.355492,234.02948 38.794988,234.02948 C 44.159283,234.02948 48.571039,229.69293 48.571039,224.45396 C 48.571039,219.16487 44.159283,214.85338 38.794988,214.85338 C 33.480826,214.85338 28.993869,219.18994 28.993869,224.32863 Z M 30.873879,224.37876 C 30.873879,220.14247 34.508565,216.55792 38.794988,216.55792 C 43.106477,216.55792 46.69103,220.14247 46.69103,224.47903 C 46.69103,228.76545 43.106477,232.32494 38.794988,232.32494 C 34.433365,232.32494 30.873879,228.76545 30.873879,224.37876 Z"
         id="path4495" /><path
         d="M 51.253174,233.70361 H 53.108117 V 226.15851 C 53.108117,222.79956 54.812659,221.37075 57.294272,221.37075 C 59.826019,221.37075 61.530561,222.77449 61.530561,226.50944 V 233.70361 H 63.385505 V 226.50944 C 63.385505,221.69662 60.954025,219.66621 57.519874,219.66621 C 55.715064,219.66621 54.26119,220.36808 53.108117,221.77182 V 219.99207 H 51.253174 Z"
         id="path4497" /><path
         d="M 65.265531,221.67155 H 68.223413 V 233.70361 H 70.078356 V 221.67155 H 73.161573 V 219.99207 H 70.078356 V 215.17925 H 68.223413 V 219.99207 H 65.265531 Z"
         id="path4499" /><path
         d="M 73.888537,226.76011 C 73.888537,230.97133 76.971753,234.02948 81.233109,234.02948 C 85.243797,234.02948 88.201679,230.9964 88.201679,226.88544 C 88.201679,222.69929 85.193663,219.66621 81.082708,219.66621 C 77.021887,219.66621 73.888537,222.74942 73.888537,226.76011 Z M 75.768547,226.81024 C 75.768547,223.70196 78.049626,221.37075 81.082708,221.37075 C 84.090724,221.37075 86.321669,223.72703 86.321669,226.91051 C 86.321669,230.04386 84.165925,232.32494 81.182976,232.32494 C 78.024559,232.32494 75.768547,230.01879 75.768547,226.81024 Z"
         id="path4501" /><path
         d="M 89.505169,215.17925 L 94.794264,233.70361 H 97.200677 L 101.2615,218.51313 L 105.37245,233.70361 H 107.7538 L 113.06796,215.17925 H 111.16288 L 106.60073,231.2972 L 102.1639,215.17925 H 100.40923 L 95.972404,231.2972 L 91.410246,215.17925 Z"
         id="path4503" /><path
         d="M 113.61943,226.78518 C 113.61943,230.846 116.80292,234.02948 120.86374,234.02948 C 123.97202,234.02948 126.65417,231.79854 127.53151,229.19159 H 125.60136 C 124.82429,231.0716 122.89415,232.32494 120.8136,232.32494 C 118.00612,232.32494 115.62478,230.16919 115.47438,227.46198 H 127.88244 C 127.88244,222.59902 124.79923,219.66621 120.7384,219.66621 C 116.75278,219.66621 113.61943,222.79956 113.61943,226.78518 Z M 115.52451,225.7825 C 116.02585,223.15049 118.10639,221.37075 120.71334,221.37075 C 123.37042,221.37075 125.40083,223.05022 126.0275,225.7825 Z"
         id="path4505" /><path
         d="M 129.91284,226.88544 C 129.91284,230.97133 133.04619,234.02948 137.25742,234.02948 C 139.58863,234.02948 141.09264,233.25241 142.54651,231.2972 V 233.70361 H 144.40145 V 219.99207 H 142.54651 V 222.42355 C 141.1929,220.51848 139.51343,219.66621 137.13208,219.66621 C 133.02113,219.66621 129.91284,222.77449 129.91284,226.88544 Z M 131.79285,226.76011 C 131.79285,223.77716 134.19927,221.37075 137.18222,221.37075 C 140.19023,221.37075 142.54651,223.72703 142.54651,226.78518 C 142.54651,229.89346 140.24037,232.32494 137.28248,232.32494 C 134.1742,232.32494 131.79285,229.89346 131.79285,226.76011 Z"
         id="path4507" /><path
         d="M 146.18121,219.99207 L 151.94657,233.70361 H 153.90178 L 159.66715,219.99207 H 157.78714 L 152.87404,231.5228 L 148.06122,219.99207 Z"
         id="path4509" /><path
         d="M 160.29385,226.78518 C 160.29385,230.846 163.47733,234.02948 167.53815,234.02948 C 170.64644,234.02948 173.32858,231.79854 174.20592,229.19159 H 172.27578 C 171.49871,231.0716 169.56856,232.32494 167.48802,232.32494 C 164.68054,232.32494 162.29919,230.16919 162.14879,227.46198 H 174.55686 C 174.55686,222.59902 171.47364,219.66621 167.41282,219.66621 C 163.4272,219.66621 160.29385,222.79956 160.29385,226.78518 Z M 162.19893,225.7825 C 162.70026,223.15049 164.78081,221.37075 167.38775,221.37075 C 170.04483,221.37075 172.07524,223.05022 172.70191,225.7825 Z"
         id="path4511" /><path
         d="M 177.11366,233.70361 H 178.96861 V 225.7073 C 178.96861,223.15049 180.27208,221.74675 182.85396,221.49608 V 219.66621 C 180.87368,219.76647 179.69554,220.44328 178.96861,221.94728 V 219.99207 H 177.11366 Z"
         id="path4513" /></g></g><metadata
     id="metadata12139"><rdf:RDF><cc:Work
         rdf:about=""><dc:title>OntoWeaver logo</dc:title><dc:date>2024-11-28</dc:date><dc:creator><cc:Agent><dc:title>nojhan</dc:title></cc:Agent></dc:creator></cc:Work></rdf:RDF></metadata></svg>
