<?xml version="1.0" encoding="UTF-8" standalone="no"?>
<!-- Created with Inkscape (http://www.inkscape.org/) -->

<svg
   width="100"
   height="100"
   viewBox="0 0 26.458333 26.458333"
   version="1.1"
   id="svg5"
   inkscape:version="1.2.2 (b0a8486541, 2022-12-01)"
   sodipodi:docname="2026-02-20_Pure_Organic_Code__logo-serialized.svg"
   xmlns:inkscape="http://www.inkscape.org/namespaces/inkscape"
   xmlns:sodipodi="http://sodipodi.sourceforge.net/DTD/sodipodi-0.dtd"
   xmlns:xlink="http://www.w3.org/1999/xlink"
   xmlns="http://www.w3.org/2000/svg"
   xmlns:svg="http://www.w3.org/2000/svg"
   xmlns:rdf="http://www.w3.org/1999/02/22-rdf-syntax-ns#"
   xmlns:cc="http://creativecommons.org/ns#"
   xmlns:dc="http://purl.org/dc/elements/1.1/">
  <title
     id="title643">Human-made Organic Code — No AI Involved</title>
  <sodipodi:namedview
     id="namedview7"
     pagecolor="#ffffff"
     bordercolor="#666666"
     borderopacity="1.0"
     inkscape:showpageshadow="2"
     inkscape:pageopacity="0.0"
     inkscape:pagecheckerboard="0"
     inkscape:deskcolor="#d1d1d1"
     inkscape:document-units="mm"
     showgrid="false"
     showguides="false"
     inkscape:zoom="7.3714395"
     inkscape:cx="51.346823"
     inkscape:cy="80.106471"
     inkscape:current-layer="layer1"
     inkscape:window-width="1440"
     inkscape:window-height="767"
     inkscape:window-x="0"
     inkscape:window-y="30"
     inkscape:window-maximized="0">
    <sodipodi:guide
       position="2.4222749,23.909057"
       orientation="0.70710678,0.70710678"
       id="guide234"
       inkscape:locked="false" />
    <sodipodi:guide
       position="65.922274,23.909057"
       orientation="0.70710678,-0.70710678"
       id="guide297"
       inkscape:locked="false" />
    <sodipodi:guide
       position="34.172274,-7.8409413"
       orientation="0,-1"
       id="guide13712"
       inkscape:locked="false" />
    <sodipodi:guide
       position="34.172275,-7.8409413"
       orientation="1,0"
       id="guide13714"
       inkscape:locked="false" />
    <sodipodi:guide
       position="82.925287,-22.668175"
       orientation="0,-1"
       id="guide13716"
       inkscape:locked="false" />
    <sodipodi:guide
       position="34.02519,-10.845395"
       orientation="0,-1"
       id="guide13718"
       inkscape:locked="false" />
    <sodipodi:guide
       position="32.949472,8.1916083"
       orientation="0,-1"
       id="guide458"
       inkscape:locked="false" />
  </sodipodi:namedview>
  <defs
     id="defs2">
    <filter
       style="color-interpolation-filters:sRGB"
       inkscape:label="Drop Shadow"
       id="filter36"
       x="-0.057162933"
       y="-0.094623789"
       width="1.1440982"
       height="1.2385308">
      <feFlood
         result="flood"
         in="SourceGraphic"
         flood-opacity="0.894118"
         flood-color="rgb(0,0,0)"
         id="feFlood35" />
      <feGaussianBlur
         result="blur"
         in="SourceGraphic"
         stdDeviation="0.400000"
         id="feGaussianBlur35" />
      <feOffset
         result="offset"
         in="blur"
         dx="0.500000"
         dy="0.500000"
         id="feOffset35" />
      <feComposite
         result="comp1"
         operator="in"
         in="flood"
         in2="offset"
         id="feComposite35" />
      <feComposite
         result="comp2"
         operator="over"
         in="SourceGraphic"
         in2="comp1"
         id="feComposite36" />
    </filter>
    <filter
       style="color-interpolation-filters:sRGB"
       inkscape:label="Drop Shadow"
       id="filter4287"
       x="-0.087999783"
       y="-0.1774196"
       width="1.2248883"
       height="1.4534057">
      <feFlood
         flood-opacity="0.75"
         flood-color="rgb(0,0,0)"
         result="flood"
         id="feFlood4277" />
      <feComposite
         in="flood"
         in2="SourceGraphic"
         operator="in"
         result="composite1"
         id="feComposite4279" />
      <feGaussianBlur
         in="composite1"
         stdDeviation="0.75"
         result="blur"
         id="feGaussianBlur4281" />
      <feOffset
         dx="1"
         dy="1"
         result="offset"
         id="feOffset4283" />
      <feComposite
         in="SourceGraphic"
         in2="offset"
         operator="over"
         result="composite2"
         id="feComposite4285" />
    </filter>
    <filter
       inkscape:label="Pointillism"
       style="color-interpolation-filters:sRGB"
       inkscape:menu-tooltip="Gives a turbulent pointillist HSL sensitive transparency"
       inkscape:menu="Scatter"
       height="1.0079339"
       width="1.0079321"
       y="-0.0039669587"
       x="-0.0039660432"
       id="filter7412">
      <feTurbulence
         seed="50"
         type="fractalNoise"
         baseFrequency="1.5000000000000004"
         numOctaves="1"
         result="result1"
         id="feTurbulence7394" />
      <feColorMatrix
         type="luminanceToAlpha"
         in="SourceGraphic"
         result="result0"
         id="feColorMatrix7396" />
      <feColorMatrix
         result="result2"
         values="1 0 0 0 0 0 1 0 0 0 0 0 1 0 0 0 0 0 0.5 0 "
         id="feColorMatrix7398" />
      <feComposite
         result="result3"
         operator="over"
         in="result1"
         in2="result2"
         id="feComposite7400" />
      <feColorMatrix
         result="result91"
         values="1 0 0 0 0 0 1 0 0 0 0 0 1 0 0 0 0 0 5 -3.2"
         id="feColorMatrix7402" />
      <feComposite
         in2="result91"
         operator="arithmetic"
         k1="1.5"
         result="result93"
         id="feComposite7404"
         k2="0"
         k3="0"
         k4="0" />
      <feComposite
         in2="result93"
         in="SourceGraphic"
         operator="out"
         result="result4"
         id="feComposite7406" />
      <feComposite
         in2="result4"
         operator="arithmetic"
         k2="0.5"
         k1="1"
         id="feComposite7408"
         k3="0"
         k4="0" />
      <feDisplacementMap
         scale="15"
         xChannelSelector="R"
         yChannelSelector="A"
         in2="result1"
         result="result92"
         id="feDisplacementMap7410" />
    </filter>
    <filter
       inkscape:label="Cross Noise"
       inkscape:menu="Overlays"
       inkscape:menu-tooltip="Adds a small scale screen like graininess"
       style="color-interpolation-filters:sRGB"
       id="filter7442"
       x="-0.0039660432"
       y="-0.0039669587"
       width="1.0079321"
       height="1.0079339">
      <feTurbulence
         type="fractalNoise"
         numOctaves="5"
         baseFrequency="3.3356299767127404"
         seed="0"
         result="result0"
         id="feTurbulence7430" />
      <feConvolveMatrix
         kernelMatrix="-2 0 -2 0 -10 0 -2 0 -2 "
         order="3 3"
         result="result5"
         id="feConvolveMatrix7432" />
      <feColorMatrix
         result="result4"
         type="luminanceToAlpha"
         in="result5"
         id="feColorMatrix7434" />
      <feComposite
         in2="result4"
         in="SourceGraphic"
         operator="arithmetic"
         k1="1.5"
         k2="0.5"
         k3="0.5"
         result="result2"
         id="feComposite7436"
         k4="0" />
      <feBlend
         result="result6"
         in2="result4"
         mode="normal"
         id="feBlend7438" />
      <feComposite
         in2="SourceGraphic"
         in="result6"
         operator="in"
         result="result3"
         id="feComposite7440" />
    </filter>
  </defs>
  <g
     inkscape:groupmode="layer"
     id="layer3"
     inkscape:label="back"
     transform="translate(2.4222749,2.5492758)" />
  <g
     inkscape:label="patch"
     inkscape:groupmode="layer"
     id="layer1"
     transform="translate(2.4222749,2.5492758)"
     style="display:inline">
    <g
       id="g8359"
       transform="matrix(0.95812437,0,0,0.95812437,0.45254555,0.39761414)">
      <g
         id="g486"
         transform="matrix(0.38775155,0,0,0.38775155,-1.4830341,-1.5607901)">
        <path
           sodipodi:type="star"
           style="font-variation-settings:normal;opacity:1;vector-effect:none;fill:#217844;fill-opacity:1;fill-rule:evenodd;stroke:#217844;stroke-width:0.502227;stroke-linecap:round;stroke-linejoin:round;stroke-miterlimit:4;stroke-dasharray:none;stroke-dashoffset:0;stroke-opacity:1;-inkscape-stroke:none;stop-color:black;stop-opacity:1"
           id="path4569"
           inkscape:flatsided="false"
           sodipodi:sides="30"
           sodipodi:cx="31.74999"
           sodipodi:cy="31.750013"
           sodipodi:r1="33.055111"
           sodipodi:r2="30.370964"
           sodipodi:arg1="0.8519005"
           sodipodi:arg2="0.95662026"
           inkscape:rounded="0"
           inkscape:randomized="0"
           d="M 53.518571,56.625087 L 49.252332,56.57064 L 47.871057,60.607449 L 43.709366,59.667191 L 41.518974,63.328603 L 37.643717,61.543627 L 34.739941,64.669621 L 31.320485,62.11794 L 27.830232,64.571894 L 25.016023,61.365029 L 21.091835,63.039694 L 19.005869,59.317799 L 14.819251,60.139984 L 13.552693,56.065725 L 9.2866218,55.999496 L 8.8948272,51.750938 L 4.7357492,50.79919 L 5.2358414,46.562014 L 1.3655287,44.766343 L 2.7356511,40.725734 L -0.67674505,38.16462 L 1.5035267,34.497173 L -1.3018149,31.282548 L 1.5933179,28.148548 L -0.48236218,24.420907 L 3.0011004,21.957323 L 1.745799,17.879583 L 5.6653473,16.194087 L 5.2852873,11.944463 L 9.4696183,11.110719 L 9.9814101,6.8749401 L 14.247649,6.9293872 L 15.628924,2.8925778 L 19.790615,3.8328359 L 21.981007,0.1714239 L 25.856264,1.9563992 L 28.76004,-1.1695941 L 32.179496,1.3820865 L 35.669749,-1.0718673 L 38.483958,2.1349979 L 42.408146,0.46033314 L 44.494112,4.1822275 L 48.68073,3.3600428 L 49.947288,7.4343017 L 54.213359,7.5005304 L 54.605154,11.749089 L 58.764232,12.700837 L 58.26414,16.938013 L 62.134452,18.733684 L 60.76433,22.774292 L 64.176726,25.335406 L 61.996454,29.002854 L 64.801796,32.217478 L 61.906663,35.351479 L 63.982343,39.07912 L 60.498881,41.542703 L 61.754182,45.620444 L 57.834634,47.30594 L 58.214694,51.555564 L 54.030363,52.389308 Z"
           inkscape:transform-center-x="0.8502838"
           inkscape:transform-center-y="-2.9488653"
           transform="matrix(1.0692392,0,0,1.0692392,-2.2529725,-2.387806)" />
        <circle
           style="font-variation-settings:normal;opacity:1;fill:#fbf8f2;fill-opacity:1;fill-rule:evenodd;stroke:#217844;stroke-width:1.32292;stroke-linecap:round;stroke-linejoin:round;stroke-miterlimit:4;stroke-dasharray:none;stroke-dashoffset:0;stroke-opacity:1;stop-color:black;stop-opacity:1"
           id="path299"
           cx="31.750002"
           cy="31.750002"
           r="31.088541" />
        <circle
           style="font-variation-settings:normal;opacity:1;fill:none;fill-opacity:1;fill-rule:evenodd;stroke:#fffbee;stroke-width:0.79375;stroke-linecap:round;stroke-linejoin:round;stroke-miterlimit:4;stroke-dasharray:none;stroke-dashoffset:0;stroke-opacity:1;stop-color:black;stop-opacity:1"
           id="circle5538"
           cx="31.750004"
           cy="31.750004"
           r="32.069569" />
        <g
           aria-label="ORGANIC CODE"
           id="text10532"
           style="font-size:9.47139px;line-height:1;font-family:'CMU Sans Serif Demi Condensed';-inkscape-font-specification:'CMU Sans Serif Demi Condensed, ';text-align:center;letter-spacing:0px;text-anchor:middle;fill:#217844;stroke-width:0.537002;stroke-linecap:round;stroke-linejoin:round">
          <path
             d="M 7.3327469,21.198777 Q 6.9917768,21.198777 6.7644635,21.445033 Q 6.3666651,21.880717 6.3666651,22.553186 Q 6.3666651,23.216183 6.7076351,23.348783 Q 6.7928776,23.377197 6.7928776,23.471911 Q 6.7928776,23.756052 6.6034498,23.954952 Q 6.4140221,24.144379 6.1393517,24.182265 Q 6.0541092,24.182265 6.0541092,24.248565 Q 6.0446378,24.35275 6.0446378,24.551649 Q 6.0446378,24.741077 6.0635806,24.977862 Q 6.0825234,25.205175 6.1488231,25.527202 Q 6.2245943,25.839758 6.3382509,26.076543 Q 6.461379,26.303856 6.679221,26.474341 Q 6.9065343,26.635355 7.2569757,26.635355 Q 7.6168886,26.635355 7.9010302,26.351213 Q 8.1851719,26.067072 8.2988286,25.612445 Q 8.5071992,24.816848 8.5071992,24.087551 Q 8.5071992,23.348783 8.4124853,22.789971 Q 8.3177714,22.231159 8.1851719,21.937546 Q 8.0620439,21.643932 7.8820875,21.463976 Q 7.7021311,21.28402 7.579003,21.246134 Q 7.4558749,21.198777 7.3327469,21.198777 Z M 5.6089539,22.136445 L 5.6468395,22.079616 Q 5.7415534,21.643932 5.949924,21.331377 Q 6.1677659,21.009349 6.3761365,20.857807 Q 6.5939785,20.696794 6.8591774,20.611551 Q 7.2096188,20.497894 7.4748177,20.497894 Q 8.1094008,20.497894 8.5640275,20.791507 Q 9.0281256,21.08512 9.2649104,21.587104 Q 9.7005943,22.543715 9.7005943,23.756052 Q 9.7005943,25.792401 8.7534553,26.720597 Q 8.2893572,27.175224 7.7305452,27.336238 Q 7.3801038,27.440423 7.0580766,27.440423 Q 5.8741528,27.440423 5.3153408,26.635355 Q 4.7565288,25.820815 4.7565288,24.580063 Q 4.7565288,23.860238 4.8796569,23.26354 Q 5.002785,22.657371 5.1353844,22.411115 L 5.2585125,22.164859 Q 5.2963981,22.079616 5.3816406,22.079616 Q 5.4668831,22.079616 5.5047686,22.098559 Q 5.5521256,22.108031 5.5710684,22.126973 Q 5.5994825,22.136445 5.6089539,22.136445 Z"
             style="font-weight:bold;font-family:Aladin;-inkscape-font-specification:'Aladin Bold'"
             id="path740" />
          <path
             d="M 13.337611,23.689753 Q 13.233425,23.718167 13.233425,23.756052 Q 13.233425,23.784467 13.460739,23.869709 Q 13.688052,23.954952 13.886951,24.134908 Q 14.095322,24.314864 14.180564,24.570592 Q 14.313164,24.958919 14.313164,25.404074 Q 14.313164,25.84923 14.379463,26.142843 Q 14.445763,26.426984 14.540477,26.578527 Q 14.729905,26.900554 14.890919,26.976325 L 14.957218,27.01421 Q 15.014047,27.052096 15.014047,27.108924 Q 15.014047,27.250995 14.549948,27.355181 Q 14.08585,27.468837 13.830123,27.468837 Q 13.328139,27.468837 13.186068,27.071039 Q 13.053469,26.663769 13.053469,25.688216 V 25.167289 Q 13.053469,24.343279 12.560957,24.115965 Q 12.371529,24.030723 12.10633,24.030723 H 12.096859 Q 12.011616,24.030723 12.011616,23.869709 Q 12.011616,23.699224 12.10633,23.528739 Q 12.210515,23.358254 12.286286,23.358254 Q 12.598842,23.358254 12.826156,23.244597 Q 13.053469,23.121469 13.157654,22.950984 Q 13.375496,22.591071 13.394439,22.335344 V 22.212216 Q 13.394439,21.861774 13.280782,21.62499 Q 13.167126,21.378734 12.996641,21.28402 Q 12.712499,21.132477 12.418886,21.132477 Q 12.125273,21.132477 11.935845,21.179834 Q 11.670646,21.255606 11.670646,21.340848 Q 11.585403,22.5816 11.585403,23.73711 Q 11.585403,24.883148 11.613818,25.498788 Q 11.651703,26.104957 11.680117,26.483813 Q 11.718003,26.853197 11.718003,26.919497 Q 11.718003,27.042625 11.651703,27.089982 Q 11.263376,27.449894 10.429894,27.449894 Q 10.287823,27.449894 10.287823,27.355181 Q 10.287823,27.326766 10.316237,27.222581 Q 10.410951,27.004739 10.448837,25.839758 Q 10.496194,24.674777 10.496194,23.718167 Q 10.496194,22.752085 10.458308,22.155388 Q 10.40148,21.255606 10.26888,21.075649 Q 10.164695,20.94305 10.164695,20.895693 Q 10.164695,20.838864 10.26888,20.782036 Q 10.875049,20.497894 12.466243,20.497894 Q 13.74488,20.497894 14.379463,21.21772 Q 14.720433,21.615518 14.720433,22.212216 Q 14.720433,22.572129 14.578363,22.85627 Q 14.436292,23.140412 14.227921,23.291954 Q 13.830123,23.595039 13.479681,23.661339 Z"
             style="font-weight:bold;font-family:Aladin;-inkscape-font-specification:'Aladin Bold'"
             id="path742" />
          <path
             d="M 18.461631,24.494821 Q 18.461631,24.276979 18.196432,24.258036 H 17.523964 Q 17.448193,24.258036 17.448193,24.210679 Q 17.505021,23.936009 17.647092,23.774995 Q 17.789163,23.60451 17.883877,23.585567 Q 18.149075,23.547682 18.755244,23.547682 Q 19.361413,23.547682 19.512956,23.557153 Q 19.664498,23.557153 19.702383,23.585567 Q 19.740269,23.632924 19.740269,23.699224 Q 19.740269,23.756052 19.702383,24.485349 Q 19.673969,25.205175 19.673969,25.78293 Q 19.673969,26.351213 19.711855,26.502755 Q 19.74974,26.644826 19.74974,26.682712 Q 19.74974,26.834254 19.484541,27.01421 Q 19.219342,27.184696 18.679473,27.317295 Q 18.149075,27.449894 17.505021,27.449894 Q 16.643124,27.449894 16.008541,26.853197 Q 15.516029,26.379627 15.326601,25.820815 Q 15.146645,25.262003 15.146645,24.248565 Q 15.146645,20.488423 17.902819,20.488423 Q 18.366917,20.488423 18.736302,20.592608 Q 19.105686,20.687322 19.380356,20.980935 Q 19.664498,21.265077 19.664498,21.719704 Q 19.664498,21.956488 19.569784,22.202744 Q 19.399299,22.704728 18.812073,22.704728 Q 18.490045,22.704728 18.31956,22.543715 Q 18.158547,22.37323 18.158547,22.079616 Q 18.158547,21.96596 18.281675,21.937546 Q 18.461631,21.83336 18.461631,21.587104 Q 18.461631,21.331377 18.272203,21.198777 Q 18.082776,21.056706 17.874405,21.056706 Q 17.419778,21.056706 17.107223,21.388205 Q 16.794667,21.710232 16.652596,22.24063 Q 16.415811,23.187769 16.415811,24.172794 Q 16.415811,25.78293 17.201936,26.313328 Q 17.49555,26.521698 17.817577,26.521698 Q 18.414274,26.521698 18.45216,26.303856 Q 18.480574,26.010243 18.480574,25.394603 Z"
             style="font-weight:bold;font-family:Aladin;-inkscape-font-specification:'Aladin Bold'"
             id="path744" />
          <path
             d="M 22.723763,21.852303 Q 21.975523,22.789971 21.644024,23.727638 H 21.653496 Q 22.970019,23.727638 23.159447,23.73711 Q 23.358346,23.73711 23.377289,23.718167 Q 23.396232,23.699224 23.405703,23.67081 Q 23.244689,22.505829 23.149975,22.089088 Q 23.055262,21.662875 22.960548,21.662875 Q 22.865834,21.662875 22.723763,21.852303 Z M 21.880809,26.313328 L 22.08918,26.275442 Q 22.183894,26.275442 22.183894,26.379627 Q 22.183894,26.711126 22.051294,26.938439 Q 21.918695,27.165753 21.719796,27.260467 Q 21.397768,27.42148 21.170455,27.42148 Q 20.734771,27.42148 20.516929,27.099453 Q 20.299087,26.767954 20.299087,26.114428 Q 20.299087,25.451431 20.659,24.400107 H 20.109659 Q 20.005474,24.400107 20.005474,24.295922 Q 20.005474,24.191736 20.166488,23.964423 Q 20.327501,23.727638 20.507458,23.727638 H 20.93367 Q 21.606139,22.231159 22.515392,21.141949 Q 22.752177,20.857807 23.093147,20.611551 Q 23.443589,20.365295 23.633016,20.365295 Q 23.822444,20.365295 23.917158,20.53578 Q 24.163414,20.933578 24.494913,23.443497 Q 24.608569,24.523235 24.88324,25.678745 Q 25.167381,26.824783 25.404166,27.01421 Q 25.460995,27.052096 25.460995,27.108924 Q 25.460995,27.250995 25.053725,27.374123 Q 24.655926,27.497251 24.438084,27.497251 Q 24.229714,27.497251 24.116057,27.440423 Q 24.002401,27.393066 23.973986,27.336238 Q 23.803501,26.966854 23.633016,25.574559 L 23.576188,25.129404 Q 23.538302,24.684249 23.500417,24.456935 L 23.434117,24.409578 L 21.454597,24.400107 Q 21.34094,24.883148 21.34094,25.243061 Q 21.34094,25.602973 21.359883,25.773458 Q 21.388297,25.934472 21.520896,26.1239 Q 21.653496,26.313328 21.880809,26.313328 Z"
             style="font-weight:bold;font-family:Aladin;-inkscape-font-specification:'Aladin Bold'"
             id="path746" />
          <path
             d="M 29.277964,24.314864 L 29.268493,23.187769 Q 29.268493,21.511333 29.154836,20.961992 Q 29.135893,20.895693 29.135893,20.857807 Q 29.135893,20.696794 29.457921,20.583137 Q 29.779948,20.46948 29.969376,20.46948 Q 30.158803,20.46948 30.158803,20.583137 Q 30.158803,20.592608 30.139861,20.687322 Q 29.922019,21.852303 29.922019,24.390636 Q 29.922019,26.1239 30.120918,26.881611 Q 30.158803,27.004739 30.158803,27.01421 Q 30.158803,27.21311 29.72312,27.336238 Q 29.287436,27.468837 29.107479,27.468837 Q 28.823337,27.468837 28.719152,27.336238 Q 28.510782,27.071039 28.037212,25.84923 Q 27.573114,24.617949 27.222673,23.557153 L 26.86276,22.496358 Q 26.843817,22.449001 26.815403,22.449001 Q 26.777517,22.449001 26.73016,22.5153 Q 26.682803,23.39614 26.682803,24.276979 Q 26.682803,25.157818 26.692275,25.631388 Q 26.711218,26.104957 26.73016,26.351213 Q 26.749103,26.597469 26.768046,26.749012 Q 26.786989,26.891082 26.79646,26.957382 Q 26.815403,27.023682 26.815403,27.052096 Q 26.815403,27.232052 26.502847,27.326766 Q 26.190291,27.430952 25.934564,27.430952 Q 25.688307,27.430952 25.688307,27.317295 Q 25.688307,27.260467 25.716722,27.175224 Q 25.745136,27.089982 25.783021,26.957382 Q 25.877735,26.625884 25.915621,25.754516 Q 25.953506,24.873676 25.953506,23.756052 Q 25.953506,22.628957 25.925092,22.117502 Q 25.877735,21.28402 25.754607,20.999878 Q 25.726193,20.971464 25.726193,20.924107 Q 25.726193,20.772565 26.228177,20.630494 Q 26.73016,20.488423 27.004831,20.488423 Q 27.288972,20.488423 27.336329,20.497894 Q 27.468929,20.488423 27.497343,20.649437 Q 27.772013,21.643932 28.264525,22.98887 Q 28.766509,24.333807 29.154836,25.044161 Q 29.202193,25.091518 29.230607,25.091518 Q 29.277964,25.091518 29.277964,24.314864 Z"
             style="font-weight:bold;font-family:Aladin;-inkscape-font-specification:'Aladin Bold'"
             id="path748" />
          <path
             d="M 32.242504,23.083584 Q 32.242504,26.019715 32.375104,26.928968 Q 32.375104,27.156281 31.93942,27.298352 Q 31.503736,27.449894 31.219594,27.449894 Q 30.935453,27.449894 30.935453,27.364652 Q 30.935453,27.307824 30.963867,27.222581 Q 31.143823,26.824783 31.143823,24.021251 Q 31.143823,21.369262 30.91651,21.075649 L 30.878624,21.018821 Q 30.821796,20.971464 30.821796,20.905164 Q 30.821796,20.829393 30.925981,20.782036 Q 31.068052,20.696794 31.427965,20.611551 Q 31.797349,20.526309 32.090962,20.526309 Q 32.384575,20.526309 32.384575,20.658908 V 20.687322 Q 32.270919,21.672347 32.242504,23.083584 Z"
             style="font-weight:bold;font-family:Aladin;-inkscape-font-specification:'Aladin Bold'"
             id="path750" />
          <path
             d="M 37.139222,25.110461 Q 37.319178,25.110461 37.319178,25.565088 Q 37.319178,26.019715 37.148693,26.379627 Q 36.978208,26.73954 36.731952,26.938439 Q 36.495167,27.137339 36.192083,27.260467 Q 35.178644,27.705622 34.297805,27.241524 Q 33.85265,27.004739 33.615865,26.682712 Q 33.37908,26.351213 33.237009,25.896587 Q 33.019167,25.214646 33.019167,24.466407 Q 33.019167,23.718167 33.161238,23.064641 Q 33.303309,22.411115 33.596922,21.823889 Q 33.890535,21.227191 34.430404,20.867279 Q 34.970274,20.507366 35.680628,20.507366 Q 35.983712,20.507366 36.305739,20.611551 Q 36.637238,20.706265 36.845609,20.857807 Q 37.053979,20.999878 37.214993,21.302962 Q 37.376007,21.606047 37.376007,22.013317 Q 37.376007,22.449001 37.167636,22.799442 Q 37.072922,22.960456 36.864551,23.093055 Q 36.656181,23.216183 36.372039,23.216183 Q 35.936355,23.216183 35.756399,22.827856 Q 35.680628,22.676314 35.680628,22.496358 Q 35.680628,22.316401 35.803756,22.287987 Q 35.936355,22.250101 36.050012,22.079616 Q 36.163669,21.909131 36.163669,21.681818 Q 36.163669,21.501862 36.068955,21.369262 Q 35.888998,21.132477 35.548028,21.132477 Q 35.207058,21.132477 34.922917,21.445033 Q 34.648246,21.757589 34.506175,22.231159 Q 34.222034,23.178298 34.222034,23.973894 Q 34.222034,24.769491 34.439876,25.252532 Q 34.705075,25.84923 35.112344,26.048129 Q 35.368072,26.171257 35.699571,26.171257 Q 36.258383,26.171257 36.703538,25.669273 Q 36.892966,25.470374 37.016094,25.195704 Q 37.063451,25.110461 37.139222,25.110461 Z"
             style="font-weight:bold;font-family:Aladin;-inkscape-font-specification:'Aladin Bold'"
             id="path752" />
          <path
             d="M 43.636601,25.110461 Q 43.816557,25.110461 43.816557,25.565088 Q 43.816557,26.019715 43.646072,26.379627 Q 43.475587,26.73954 43.229331,26.938439 Q 42.992547,27.137339 42.689462,27.260467 Q 41.676023,27.705622 40.795184,27.241524 Q 40.350029,27.004739 40.113244,26.682712 Q 39.876459,26.351213 39.734388,25.896587 Q 39.516547,25.214646 39.516547,24.466407 Q 39.516547,23.718167 39.658617,23.064641 Q 39.800688,22.411115 40.094301,21.823889 Q 40.387914,21.227191 40.927784,20.867279 Q 41.467653,20.507366 42.178007,20.507366 Q 42.481092,20.507366 42.803119,20.611551 Q 43.134617,20.706265 43.342988,20.857807 Q 43.551359,20.999878 43.712372,21.302962 Q 43.873386,21.606047 43.873386,22.013317 Q 43.873386,22.449001 43.665015,22.799442 Q 43.570301,22.960456 43.361931,23.093055 Q 43.15356,23.216183 42.869419,23.216183 Q 42.433735,23.216183 42.253778,22.827856 Q 42.178007,22.676314 42.178007,22.496358 Q 42.178007,22.316401 42.301135,22.287987 Q 42.433735,22.250101 42.547391,22.079616 Q 42.661048,21.909131 42.661048,21.681818 Q 42.661048,21.501862 42.566334,21.369262 Q 42.386378,21.132477 42.045408,21.132477 Q 41.704438,21.132477 41.420296,21.445033 Q 41.145626,21.757589 41.003555,22.231159 Q 40.719413,23.178298 40.719413,23.973894 Q 40.719413,24.769491 40.937255,25.252532 Q 41.202454,25.84923 41.609724,26.048129 Q 41.865451,26.171257 42.19695,26.171257 Q 42.755762,26.171257 43.200917,25.669273 Q 43.390345,25.470374 43.513473,25.195704 Q 43.56083,25.110461 43.636601,25.110461 Z"
             style="font-weight:bold;font-family:Aladin;-inkscape-font-specification:'Aladin Bold'"
             id="path754" />
          <path
             d="M 46.818995,21.198777 Q 46.478025,21.198777 46.250711,21.445033 Q 45.852913,21.880717 45.852913,22.553186 Q 45.852913,23.216183 46.193883,23.348783 Q 46.279126,23.377197 46.279126,23.471911 Q 46.279126,23.756052 46.089698,23.954952 Q 45.90027,24.144379 45.6256,24.182265 Q 45.540357,24.182265 45.540357,24.248565 Q 45.530886,24.35275 45.530886,24.551649 Q 45.530886,24.741077 45.549829,24.977862 Q 45.568771,25.205175 45.635071,25.527202 Q 45.710842,25.839758 45.824499,26.076543 Q 45.947627,26.303856 46.165469,26.474341 Q 46.392782,26.635355 46.743224,26.635355 Q 47.103137,26.635355 47.387278,26.351213 Q 47.67142,26.067072 47.785077,25.612445 Q 47.993447,24.816848 47.993447,24.087551 Q 47.993447,23.348783 47.898733,22.789971 Q 47.804019,22.231159 47.67142,21.937546 Q 47.548292,21.643932 47.368335,21.463976 Q 47.188379,21.28402 47.065251,21.246134 Q 46.942123,21.198777 46.818995,21.198777 Z M 45.095202,22.136445 L 45.133087,22.079616 Q 45.227801,21.643932 45.436172,21.331377 Q 45.654014,21.009349 45.862385,20.857807 Q 46.080226,20.696794 46.345425,20.611551 Q 46.695867,20.497894 46.961066,20.497894 Q 47.595649,20.497894 48.050276,20.791507 Q 48.514374,21.08512 48.751158,21.587104 Q 49.186842,22.543715 49.186842,23.756052 Q 49.186842,25.792401 48.239703,26.720597 Q 47.775605,27.175224 47.216793,27.336238 Q 46.866352,27.440423 46.544325,27.440423 Q 45.360401,27.440423 44.801589,26.635355 Q 44.242777,25.820815 44.242777,24.580063 Q 44.242777,23.860238 44.365905,23.26354 Q 44.489033,22.657371 44.621632,22.411115 L 44.744761,22.164859 Q 44.782646,22.079616 44.867889,22.079616 Q 44.953131,22.079616 44.991017,22.098559 Q 45.038374,22.108031 45.057316,22.126973 Q 45.085731,22.136445 45.095202,22.136445 Z"
             style="font-weight:bold;font-family:Aladin;-inkscape-font-specification:'Aladin Bold'"
             id="path756" />
          <path
             d="M 51.649408,21.141949 Q 51.478923,21.141949 51.355795,21.198777 Q 51.232667,21.255606 51.232667,21.340848 Q 51.11901,21.738646 51.11901,23.718167 Q 51.11901,25.688216 51.109539,25.925001 Q 51.289495,26.209142 51.668351,26.209142 Q 52.34082,26.209142 52.68179,25.470374 Q 53.02276,24.722134 53.02276,23.60451 Q 53.02276,22.477415 52.691261,21.814418 Q 52.359762,21.141949 51.649408,21.141949 Z M 49.840373,27.383595 Q 49.698302,27.364652 49.698302,27.298352 L 49.726716,27.184696 Q 49.963501,26.67324 49.963501,23.500325 Q 49.963501,21.984903 49.878258,21.606047 Q 49.802487,21.227191 49.75513,21.123006 L 49.707773,21.028292 Q 49.669888,20.990407 49.669888,20.924107 Q 49.669888,20.848336 49.783544,20.800979 Q 50.522313,20.507366 51.725179,20.507366 Q 54.25404,20.507366 54.25404,23.727638 Q 54.25404,24.987333 53.808885,26.029186 Q 53.628929,26.426984 53.392144,26.720597 Q 53.155359,27.004739 52.767032,27.203638 Q 52.388177,27.393066 51.924078,27.393066 Q 51.829365,27.383595 51.677822,27.364652 Q 51.535751,27.345709 51.242138,27.222581 Q 50.957997,27.099453 50.853811,26.900554 Q 50.50337,27.383595 49.840373,27.383595 Z"
             style="font-weight:bold;font-family:Aladin;-inkscape-font-specification:'Aladin Bold'"
             id="path758" />
          <path
             d="M 58.743473,26.104957 Q 58.743473,26.767954 58.31726,27.089982 Q 57.900519,27.412009 57.142808,27.412009 Q 55.93047,27.412009 55.352715,26.606941 Q 54.784432,25.801873 54.784432,24.504292 Q 54.784432,24.295922 54.803374,23.898123 H 54.272977 Q 54.197206,23.898123 54.197206,23.841295 Q 54.197206,23.680281 54.358219,23.452968 Q 54.519233,23.225655 54.708661,23.225655 H 54.888617 Q 55.011745,22.543715 55.286415,22.022788 Q 55.570557,21.501862 55.873642,21.21772 Q 56.186197,20.933578 56.555582,20.763093 Q 57.142808,20.478952 57.786862,20.478952 Q 58.430917,20.478952 58.59193,20.687322 Q 58.667702,20.791507 58.667702,21.075649 Q 58.667702,21.350319 58.601402,21.350319 Q 58.59193,21.350319 58.516159,21.312434 Q 58.269903,21.198777 57.900519,21.198777 Q 57.095451,21.198777 56.640824,21.767061 Q 56.195669,22.335344 56.044127,23.225655 Q 56.763952,23.216183 57.995233,23.216183 Q 58.089947,23.216183 58.089947,23.282483 Q 58.089947,23.434025 57.938404,23.67081 Q 57.786862,23.898123 57.597434,23.898123 H 55.968355 Q 55.958884,24.01178 55.958884,24.400107 Q 55.958884,24.778963 56.091483,25.205175 Q 56.233554,25.621916 56.602939,25.915529 Q 56.981794,26.209142 57.578492,26.209142 Q 58.175189,26.209142 58.582459,25.943943 Q 58.629816,25.906058 58.667702,25.906058 Q 58.743473,25.906058 58.743473,26.104957 Z"
             style="font-weight:bold;font-family:Aladin;-inkscape-font-specification:'Aladin Bold'"
             id="path760" />
        </g>
        <g
           aria-label="NO AI INVOLVED"
           id="text10536"
           style="font-size:5.64444px;font-family:'CMU Sans Serif Demi Condensed';-inkscape-font-specification:'CMU Sans Serif Demi Condensed, ';letter-spacing:0.529167px;fill:#217844;stroke-width:0.537001;stroke-linecap:round;stroke-linejoin:round">
          <path
             d="M 10.683147,46.198706 L 11.421241,47.125911 L 10.145257,50.054469 L 12.353298,48.296777 L 12.979819,49.083822 L 9.7604782,51.646551 L 9.0223849,50.719346 L 10.298369,47.790789 L 8.0903275,49.548481 L 7.4638064,48.761435 Z"
             style="font-weight:bold;font-family:'DejaVu Sans';-inkscape-font-specification:'DejaVu Sans Bold'"
             id="path763" />
          <path
             d="M 14.510668,51.454402 Q 14.145811,51.13476 13.708625,51.22809 Q 13.27144,51.32142 12.842828,51.810661 Q 12.416033,52.297828 12.38102,52.743491 Q 12.346007,53.189155 12.710864,53.508797 Q 13.077794,53.830255 13.51498,53.736925 Q 13.952165,53.643595 14.37896,53.156427 Q 14.807572,52.667187 14.842585,52.221524 Q 14.877598,51.77586 14.510668,51.454402 Z M 15.017374,50.87602 Q 15.763673,51.529834 15.812449,52.327377 Q 15.861225,53.124921 15.201962,53.877439 Q 14.544516,54.627884 13.747487,54.684438 Q 12.950457,54.740992 12.204158,54.087179 Q 11.459932,53.435181 11.409083,52.635821 Q 11.360307,51.838278 12.017754,51.087833 Q 12.677016,50.335315 13.474045,50.278761 Q 14.273148,50.224022 15.017374,50.87602 Z"
             style="font-weight:bold;font-family:'DejaVu Sans';-inkscape-font-specification:'DejaVu Sans Bold'"
             id="path765" />
          <path
             d="M 19.6386,57.946751 L 18.152605,57.208767 L 17.584663,57.76372 L 16.629381,57.289301 L 19.824673,54.281852 L 20.957682,54.844535 L 20.492473,59.207816 L 19.53719,58.733398 Z M 18.729145,56.642697 L 19.738733,57.144085 L 19.963351,55.427757 Z"
             style="font-weight:bold;font-family:'DejaVu Sans';-inkscape-font-specification:'DejaVu Sans Bold'"
             id="path767" />
          <path
             d="M 22.874874,55.642063 L 23.877356,55.989825 L 22.528763,59.877373 L 21.52628,59.529611 Z"
             style="font-weight:bold;font-family:'DejaVu Sans';-inkscape-font-specification:'DejaVu Sans Bold'"
             id="path769" />
          <path
             d="M 27.127481,56.81224 L 28.174722,56.983108 L 27.512108,61.044226 L 26.464867,60.873358 Z"
             style="font-weight:bold;font-family:'DejaVu Sans';-inkscape-font-specification:'DejaVu Sans Bold'"
             id="path771" />
          <path
             d="M 29.187283,57.167739 L 30.37189,57.202313 L 31.785467,60.066992 L 31.867802,57.245973 L 32.873341,57.275321 L 32.753296,61.388388 L 31.568688,61.353814 L 30.155112,58.489135 L 30.072777,61.310154 L 29.067238,61.280806 Z"
             style="font-weight:bold;font-family:'DejaVu Sans';-inkscape-font-specification:'DejaVu Sans Bold'"
             id="path773" />
          <path
             d="M 33.258902,57.276878 L 34.314959,57.127274 L 35.821577,59.981362 L 36.473463,56.821496 L 37.52952,56.671893 L 36.597629,60.959809 L 35.345096,61.137245 Z"
             style="font-weight:bold;font-family:'DejaVu Sans';-inkscape-font-specification:'DejaVu Sans Bold'"
             id="path775" />
          <path
             d="M 39.795304,56.664871 Q 39.333791,56.814194 39.189729,57.237382 Q 39.045668,57.66057 39.245897,58.279418 Q 39.445277,58.895643 39.809929,59.154236 Q 40.174581,59.412829 40.636095,59.263506 Q 41.10023,59.113335 41.244292,58.690147 Q 41.388353,58.266959 41.188973,57.650734 Q 40.988744,57.031886 40.624092,56.773293 Q 40.25944,56.5147 39.795304,56.664871 Z M 39.558593,55.933267 Q 40.502598,55.627834 41.21231,55.994936 Q 41.922022,56.362037 42.23,57.313909 Q 42.537131,58.263158 42.176971,58.976417 Q 41.81681,59.689677 40.872806,59.99511 Q 39.931423,60.299695 39.219089,59.933442 Q 38.509377,59.56634 38.202247,58.617091 Q 37.894268,57.66522 38.254428,56.95196 Q 38.617211,56.237852 39.558593,55.933267 Z"
             style="font-weight:bold;font-family:'DejaVu Sans';-inkscape-font-specification:'DejaVu Sans Bold'"
             id="path777" />
          <path
             d="M 42.237125,54.993461 L 43.187809,54.522175 L 44.6592,57.490282 L 46.328452,56.662777 L 46.68467,57.381346 L 44.064736,58.680136 Z"
             style="font-weight:bold;font-family:'DejaVu Sans';-inkscape-font-specification:'DejaVu Sans Bold'"
             id="path779" />
          <path
             d="M 44.32028,54.017251 L 45.201628,53.416533 L 47.814045,55.311524 L 47.003041,52.188709 L 47.884389,51.587991 L 48.942494,55.846518 L 47.897174,56.558998 Z"
             style="font-weight:bold;font-family:'DejaVu Sans';-inkscape-font-specification:'DejaVu Sans Bold'"
             id="path781" />
          <path
             d="M 48.192903,51.26797 L 50.280299,49.307673 L 50.829333,49.892305 L 49.515419,51.126216 L 50.039926,51.68473 L 51.275487,50.524401 L 51.824521,51.109032 L 50.58896,52.269362 L 51.234216,52.956454 L 52.592329,51.681035 L 53.141363,52.265667 L 51.009769,54.267471 Z"
             style="font-weight:bold;font-family:'DejaVu Sans';-inkscape-font-specification:'DejaVu Sans Bold'"
             id="path783" />
          <path
             d="M 52.159174,48.338556 L 54.152466,49.865258 L 54.383734,49.56331 Q 54.779235,49.046935 54.731042,48.579545 Q 54.684524,48.109967 54.196594,47.736252 Q 53.710852,47.364213 53.249235,47.441129 Q 52.787618,47.518046 52.390441,48.036608 Z M 50.877254,48.693273 L 51.557651,47.804934 Q 52.12744,47.061005 52.512845,46.779909 Q 52.897738,46.494949 53.350976,46.428973 Q 53.747931,46.368491 54.122219,46.478115 Q 54.496507,46.587738 54.861908,46.867605 Q 55.231684,47.150824 55.437223,47.485302 Q 55.640575,47.818104 55.685601,48.217108 Q 55.73831,48.67407 55.56398,49.123776 Q 55.387462,49.571805 54.824375,50.306982 L 54.143979,51.195321 Z"
             style="font-weight:bold;font-family:'DejaVu Sans';-inkscape-font-specification:'DejaVu Sans Bold'"
             id="path785" />
        </g>
        <g
           id="g4299"
           transform="matrix(0.70318506,0,0,0.70075642,9.423874,16.694693)"
           style="stroke-width:1.65573">
          <g
             id="g16"
             transform="translate(1.367145,3.6611165)"
             style="stroke:#539b70;stroke-width:1.65573;stroke-opacity:1">
            <g
               id="g15"
               transform="matrix(1.3416496,-0.37525525,0.37266764,1.3416496,-125.22297,29.206319)"
               style="stroke:#539b70;stroke-width:0.943605;stroke-linecap:round;stroke-dasharray:none;stroke-opacity:1"
               inkscape:transform-center-x="3.9078407"
               inkscape:transform-center-y="-8.5408119">
              <path
                 style="opacity:1;fill:none;stroke:#539b70;stroke-width:0.943605;stroke-linecap:round;stroke-dasharray:none;stroke-opacity:1"
                 d="M 94.696718,39.107988 C 94.696718,39.107988 95.66964,36.6047 95.507245,35.325523 C 95.323372,33.877162 93.949926,32.811676 93.548469,31.40797 C 93.34949,30.712236 93.397468,29.968346 93.345838,29.246562 C 93.215561,27.425304 93.248158,25.284824 93.248158,25.284824 C 93.248158,25.284824 94.958852,25.192674 95.409568,26.838336 C 95.76292,28.128505 95.109729,28.118609 95.709881,29.314105 C 96.23863,30.367366 97.699417,30.718146 98.276554,31.74569 C 98.59228,32.307814 98.681819,33.636923 98.681819,33.636923"
                 id="path2"
                 sodipodi:nodetypes="cssscsssc" />
              <path
                 style="opacity:1;fill:none;stroke:#539b70;stroke-width:0.943605;stroke-linecap:round;stroke-dasharray:none;stroke-opacity:1"
                 d="M 95.06919,26.060859 C 95.06919,26.060859 95.256527,24.354633 95.507245,23.707951 C 95.973644,22.504969 97.398479,20.330751 97.398479,20.330751 C 97.398479,20.330751 98.558104,20.558197 98.676347,21.137231 C 98.888642,22.176836 97.818289,23.682516 97.60111,24.721112 C 97.392459,25.718926 97.263391,27.760594 97.263391,27.760594"
                 id="path3"
                 sodipodi:nodetypes="cscssc" />
              <path
                 style="opacity:1;fill:none;stroke:#539b70;stroke-width:0.943605;stroke-linecap:round;stroke-dasharray:none;stroke-opacity:1"
                 d="M 98.706791,21.432168 C 98.706791,21.432168 99.362604,19.728675 99.625233,19.702102 C 99.824374,19.681952 100.75351,19.632002 100.86958,20.194655 C 101.13872,21.499284 99.751151,23.317398 99.31415,24.57578 C 99.111268,25.159995 98.908171,25.752173 98.821596,26.364523 C 98.722396,27.066182 98.795666,28.490277 98.795666,28.490277"
                 id="path4"
                 sodipodi:nodetypes="cssssc" />
              <path
                 style="opacity:1;fill:none;stroke:#539b70;stroke-width:0.943605;stroke-linecap:round;stroke-dasharray:none;stroke-opacity:1"
                 d="M 100.73378,21.476969 C 100.86497,21.416829 101.00105,21.379709 101.10289,21.413079 C 101.53383,21.554285 101.78229,22.126634 101.80284,22.579651 C 101.85324,23.69159 100.67504,24.521913 100.3511,25.586814 C 100.01073,26.705702 100.09161,29.00234 100.09161,29.00234"
                 id="path5"
                 sodipodi:nodetypes="csssc" />
              <path
                 style="opacity:1;fill:none;stroke:#539b70;stroke-width:0.943605;stroke-linecap:round;stroke-dasharray:none;stroke-opacity:1"
                 d="M 101.28436,24.03138 C 101.28436,24.03138 101.94369,23.94955 102.13984,24.160999 C 102.4522,24.49772 102.4777,24.924955 102.33094,25.360165 C 102.01653,26.292531 101.48402,27.222454 101.38805,28.127343 C 101.29455,29.00892 101.55732,29.892661 101.67322,30.771573 C 101.81496,31.84638 102.37853,32.920248 102.17467,33.98502 C 101.98475,34.976982 101.28356,35.820451 100.63473,36.594449 C 100.33863,36.947665 99.874247,37.576983 99.874247,37.576983 L 99.434913,40.493857"
                 id="path6"
                 sodipodi:nodetypes="csssssscc" />
            </g>
            <use
               x="0"
               y="0"
               xlink:href="#g15"
               id="use15"
               transform="matrix(-1,0,0,1,60.76571,2.5259943e-8)"
               style="stroke:#539b70;stroke-width:1.65573;stroke-opacity:1" />
          </g>
          <g
             id="g7318"
             transform="matrix(0.91683863,0,0,0.912593,2.5865292,3.8307158)"
             style="stroke:black;stroke-width:0.957854;stroke-dasharray:none">
            <g
               aria-label="&lt;/&gt;"
               id="text7316"
               style="font-size:17.3617px;line-height:1.4;font-family:'Consolas for Powerline';-inkscape-font-specification:'Consolas for Powerline';letter-spacing:0px;fill:#217844;stroke:black;stroke-width:0.957854;stroke-linecap:round;stroke-dasharray:none">
              <path
                 d="M 27.369796,38.41688 L 18.949371,34.701477 V 33.486158 L 27.369796,29.284626 V 31.315945 L 21.570988,34.007009 L 27.369796,36.385562 Z"
                 style="font-weight:bold;font-family:'Droid Sans Fallback';-inkscape-font-specification:'Droid Sans Fallback Bold';stroke:black;stroke-width:0.957854;stroke-dasharray:none"
                 id="path7320" />
              <path
                 d="M 35.217293,27.739435 L 30.599081,40.135689 H 28.255251 L 32.873464,27.739435 Z"
                 style="font-weight:bold;font-family:'Droid Sans Fallback';-inkscape-font-specification:'Droid Sans Fallback Bold';stroke:black;stroke-width:0.957854;stroke-dasharray:none"
                 id="path7322" />
              <path
                 d="M 36.050657,36.385562 L 41.849465,34.007009 L 36.050657,31.315945 V 29.284626 L 44.471081,33.486158 V 34.701477 L 36.050657,38.41688 Z"
                 style="font-weight:bold;font-family:'Droid Sans Fallback';-inkscape-font-specification:'Droid Sans Fallback Bold';stroke:black;stroke-width:0.957854;stroke-dasharray:none"
                 id="path7324" />
            </g>
          </g>
          <g
             id="g6586"
             transform="matrix(0.91683863,0,0,0.912593,2.5865292,3.8307158)"
             style="stroke-width:1.81011">
            <g
               aria-label="&lt;/&gt;"
               id="text16"
               style="font-size:17.3617px;line-height:1.4;font-family:'Consolas for Powerline';-inkscape-font-specification:'Consolas for Powerline';letter-spacing:0px;fill:#217844;stroke:red;stroke-width:9.64518;stroke-linecap:round">
              <path
                 d="M 27.369796,38.41688 L 18.949371,34.701477 V 33.486158 L 27.369796,29.284626 V 31.315945 L 21.570988,34.007009 L 27.369796,36.385562 Z"
                 style="font-weight:bold;font-family:'Droid Sans Fallback';-inkscape-font-specification:'Droid Sans Fallback Bold';stroke:none"
                 id="path788" />
              <path
                 d="M 35.217293,27.739435 L 30.599081,40.135689 H 28.255251 L 32.873464,27.739435 Z"
                 style="font-weight:bold;font-family:'Droid Sans Fallback';-inkscape-font-specification:'Droid Sans Fallback Bold';stroke:none"
                 id="path790" />
              <path
                 d="M 36.050657,36.385562 L 41.849465,34.007009 L 36.050657,31.315945 V 29.284626 L 44.471081,33.486158 V 34.701477 L 36.050657,38.41688 Z"
                 style="font-weight:bold;font-family:'Droid Sans Fallback';-inkscape-font-specification:'Droid Sans Fallback Bold';stroke:none"
                 id="path792" />
            </g>
          </g>
        </g>
        <g
           aria-label="HUMAN-MADE"
           id="text4305"
           style="font-size:5.64444px;font-family:'CMU Sans Serif Demi Condensed';-inkscape-font-specification:'CMU Sans Serif Demi Condensed, ';fill:#217844;stroke-width:0.537001;stroke-linecap:round;stroke-linejoin:round">
          <path
             d="M 9.5293298,13.622447 L 10.250901,12.844473 L 11.400687,13.910898 L 12.465238,12.763133 L 11.315452,11.696708 L 12.037023,10.918733 L 15.053948,13.716929 L 14.332377,14.494903 L 13.053265,13.308528 L 11.988714,14.456293 L 13.267825,15.642669 L 12.546254,16.420643 Z"
             style="font-weight:bold;font-family:'DejaVu Sans';-inkscape-font-specification:'DejaVu Sans Bold'"
             id="path719" />
          <path
             d="M 13.405544,9.7065808 L 14.261338,9.0792649 L 15.719644,11.068708 Q 16.021081,11.479934 16.284803,11.559998 Q 16.549119,11.63621 16.853648,11.412983 Q 17.1604,11.188127 17.165049,10.914759 Q 17.170291,10.637538 16.868853,10.226313 L 15.410547,8.2368691 L 16.266341,7.6095531 L 17.724647,9.5989967 Q 18.241165,10.303638 18.140289,10.907252 Q 18.039413,11.510865 17.314766,12.042047 Q 16.592342,12.5716 15.986355,12.486133 Q 15.380367,12.400665 14.86385,11.696024 Z"
             style="font-weight:bold;font-family:'DejaVu Sans';-inkscape-font-specification:'DejaVu Sans Bold'"
             id="path721" />
          <path
             d="M 17.888491,6.6020494 L 19.119802,6.0473787 L 20.878634,7.6702961 L 20.833586,5.2753676 L 22.062384,4.7218289 L 23.752432,8.4735584 L 22.837744,8.8855995 L 21.60162,6.1415348 L 21.648434,8.5538045 L 21.035292,8.8300078 L 19.259616,7.1965411 L 20.49574,9.9406058 L 19.578539,10.353779 Z"
             style="font-weight:bold;font-family:'DejaVu Sans';-inkscape-font-specification:'DejaVu Sans Bold'"
             id="path723" />
          <path
             d="M 27.04329,6.9261822 L 25.42405,7.2879353 L 25.331973,8.076639 L 24.291033,8.3091945 L 24.881302,3.9610655 L 26.115905,3.6852438 L 28.500517,7.3687568 L 27.459578,7.6013123 Z M 25.515814,6.4851818 L 26.615928,6.2394061 L 25.71027,4.7642724 Z"
             style="font-weight:bold;font-family:'DejaVu Sans';-inkscape-font-specification:'DejaVu Sans Bold'"
             id="path725" />
          <path
             d="M 28.910835,3.2142809 L 30.095209,3.1724705 L 31.690393,5.9401359 L 31.590826,3.1196727 L 32.596167,3.0841825 L 32.741336,7.1964399 L 31.556962,7.2382503 L 29.961778,4.4705848 L 30.061345,7.291048 L 29.056005,7.3265382 Z"
             style="font-weight:bold;font-family:'DejaVu Sans';-inkscape-font-specification:'DejaVu Sans Bold'"
             id="path727" />
          <path
             d="M 33.785685,5.2828693 L 35.506321,5.4703091 L 35.419466,6.2676098 L 33.69883,6.08017 Z"
             style="font-weight:bold;font-family:'DejaVu Sans';-inkscape-font-specification:'DejaVu Sans Bold'"
             id="path729" />
          <path
             d="M 37.227971,3.5624555 L 38.528953,3.9247184 L 38.840964,6.2974803 L 40.339706,4.4289291 L 41.638032,4.7904526 L 40.53424,8.7544628 L 39.567796,8.4853532 L 40.375125,5.5860236 L 38.866637,7.4690266 L 38.218801,7.2886345 L 37.900606,4.8969849 L 37.093277,7.7963145 L 36.124179,7.5264657 Z"
             style="font-weight:bold;font-family:'DejaVu Sans';-inkscape-font-specification:'DejaVu Sans Bold'"
             id="path731" />
          <path
             d="M 44.052032,9.6775677 L 42.577776,8.9164034 L 42.001213,9.462395 L 41.053477,8.973075 L 44.295473,6.016032 L 45.419532,6.5963882 L 44.886052,10.951849 L 43.938316,10.462529 Z M 43.16311,8.3594315 L 44.164722,8.8765681 L 44.41619,7.1639677 Z"
             style="font-weight:bold;font-family:'DejaVu Sans';-inkscape-font-specification:'DejaVu Sans Bold'"
             id="path733" />
          <path
             d="M 48.207496,9.3128478 L 46.667722,11.29606 L 46.968143,11.529308 Q 47.481906,11.928196 47.949603,11.883076 Q 48.419477,11.839647 48.796392,11.354184 Q 49.171617,10.870899 49.097737,10.408786 Q 49.023857,9.9466736 48.507917,9.5460957 Z M 47.861215,8.0286242 L 48.745061,8.7148462 Q 49.485228,9.2895149 49.763784,9.6767596 Q 50.046207,10.063517 50.109202,10.517179 Q 50.167073,10.914523 50.054991,11.288083 Q 49.942909,11.661642 49.660646,12.025195 Q 49.375002,12.393101 49.03918,12.596437 Q 48.705048,12.797595 48.305756,12.839997 Q 47.848458,12.889701 47.399908,12.712418 Q 46.953049,12.532958 46.22159,11.96505 L 45.337743,11.278828 Z"
             style="font-weight:bold;font-family:'DejaVu Sans';-inkscape-font-specification:'DejaVu Sans Bold'"
             id="path735" />
          <path
             d="M 52.008351,11.483918 L 53.933483,13.603788 L 53.339756,14.142973 L 52.127979,12.808618 L 51.560776,13.323716 L 52.700291,14.578499 L 52.106565,15.117685 L 50.967049,13.862901 L 50.269267,14.496583 L 51.521808,15.875825 L 50.928081,16.41501 L 48.962185,14.250253 Z"
             style="font-weight:bold;font-family:'DejaVu Sans';-inkscape-font-specification:'DejaVu Sans Bold'"
             id="path737" />
        </g>
      </g>
    </g>
  </g>
  <g
     inkscape:groupmode="layer"
     id="layer2"
     inkscape:label="construct"
     style="display:none"
     transform="rotate(-51.839039,35.583874,30.532562)">
    <circle
       style="font-variation-settings:normal;opacity:1;fill:none;fill-opacity:1;fill-rule:evenodd;stroke:red;stroke-width:0.264583;stroke-linecap:round;stroke-linejoin:round;stroke-miterlimit:4;stroke-dasharray:none;stroke-dashoffset:0;stroke-opacity:1;stop-color:black;stop-opacity:1"
       id="circle11314"
       cx="-44.504589"
       cy="-5.9553914"
       transform="rotate(-142.62175)"
       r="24.502602" />
    <circle
       style="font-variation-settings:normal;opacity:1;fill:none;fill-opacity:1;fill-rule:evenodd;stroke:#fc0;stroke-width:0.264583;stroke-linecap:round;stroke-linejoin:round;stroke-miterlimit:4;stroke-dasharray:none;stroke-dashoffset:0;stroke-opacity:1;stop-color:black;stop-opacity:1"
       id="circle12978"
       cx="-8.5664339"
       cy="44.076538"
       transform="matrix(-0.82902322,0.55921418,0.55921418,0.82902322,0,0)"
       r="29.594261" />
  </g>
  <metadata
     id="metadata641">
    <rdf:RDF>
      <cc:Work
         rdf:about="">
        <dc:title>Human-made Organic Code — No AI Involved</dc:title>
        <dc:date>2026-02-27</dc:date>
        <dc:creator>
          <cc:Agent>
            <dc:title>nojhan</dc:title>
          </cc:Agent>
        </dc:creator>
      </cc:Work>
    </rdf:RDF>
  </metadata>
</svg>
