<?xml version="1.0" encoding="UTF-8" standalone="no"?>
<!-- Created with Inkscape (http://www.inkscape.org/) -->

<svg
   width="100"
   height="100"
   viewBox="0 0 26.458333 26.458333"
   version="1.1"
   id="svg5"
   inkscape:version="1.2.2 (b0a8486541, 2022-12-01)"
   sodipodi:docname="2026-02-20_Pure_Organic_Code__logo.svg"
   xmlns:inkscape="http://www.inkscape.org/namespaces/inkscape"
   xmlns:sodipodi="http://sodipodi.sourceforge.net/DTD/sodipodi-0.dtd"
   xmlns:xlink="http://www.w3.org/1999/xlink"
   xmlns="http://www.w3.org/2000/svg"
   xmlns:svg="http://www.w3.org/2000/svg"
   xmlns:rdf="http://www.w3.org/1999/02/22-rdf-syntax-ns#"
   xmlns:cc="http://creativecommons.org/ns#"
   xmlns:dc="http://purl.org/dc/elements/1.1/">
  <title
     id="title716">Pure Certified Organic Code — No AI Involved</title>
  <sodipodi:namedview
     id="namedview7"
     pagecolor="#ffffff"
     bordercolor="#666666"
     borderopacity="1.0"
     inkscape:showpageshadow="2"
     inkscape:pageopacity="0.0"
     inkscape:pagecheckerboard="0"
     inkscape:deskcolor="#d1d1d1"
     inkscape:document-units="mm"
     showgrid="false"
     showguides="false"
     inkscape:zoom="1.4584"
     inkscape:cx="61.025782"
     inkscape:cy="88.110258"
     inkscape:current-layer="svg5"
     inkscape:window-width="1440"
     inkscape:window-height="767"
     inkscape:window-x="0"
     inkscape:window-y="30"
     inkscape:window-maximized="0">
    <sodipodi:guide
       position="2.4222749,23.909057"
       orientation="0.70710678,0.70710678"
       id="guide234"
       inkscape:locked="false" />
    <sodipodi:guide
       position="65.922274,23.909057"
       orientation="0.70710678,-0.70710678"
       id="guide297"
       inkscape:locked="false" />
    <sodipodi:guide
       position="34.172274,-7.8409413"
       orientation="0,-1"
       id="guide13712"
       inkscape:locked="false" />
    <sodipodi:guide
       position="34.172275,-7.8409413"
       orientation="1,0"
       id="guide13714"
       inkscape:locked="false" />
    <sodipodi:guide
       position="82.925287,-22.668175"
       orientation="0,-1"
       id="guide13716"
       inkscape:locked="false" />
    <sodipodi:guide
       position="34.02519,-10.845395"
       orientation="0,-1"
       id="guide13718"
       inkscape:locked="false" />
  </sodipodi:namedview>
  <defs
     id="defs2">
    <filter
       style="color-interpolation-filters:sRGB"
       inkscape:label="Drop Shadow"
       id="filter36"
       x="-0.057162933"
       y="-0.094623789"
       width="1.1440982"
       height="1.2385308">
      <feFlood
         result="flood"
         in="SourceGraphic"
         flood-opacity="0.894118"
         flood-color="rgb(0,0,0)"
         id="feFlood35" />
      <feGaussianBlur
         result="blur"
         in="SourceGraphic"
         stdDeviation="0.400000"
         id="feGaussianBlur35" />
      <feOffset
         result="offset"
         in="blur"
         dx="0.500000"
         dy="0.500000"
         id="feOffset35" />
      <feComposite
         result="comp1"
         operator="in"
         in="flood"
         in2="offset"
         id="feComposite35" />
      <feComposite
         result="comp2"
         operator="over"
         in="SourceGraphic"
         in2="comp1"
         id="feComposite36" />
    </filter>
    <filter
       style="color-interpolation-filters:sRGB"
       inkscape:label="Drop Shadow"
       id="filter4287"
       x="-0.087999783"
       y="-0.1774196"
       width="1.2248883"
       height="1.4534057">
      <feFlood
         flood-opacity="0.75"
         flood-color="rgb(0,0,0)"
         result="flood"
         id="feFlood4277" />
      <feComposite
         in="flood"
         in2="SourceGraphic"
         operator="in"
         result="composite1"
         id="feComposite4279" />
      <feGaussianBlur
         in="composite1"
         stdDeviation="0.75"
         result="blur"
         id="feGaussianBlur4281" />
      <feOffset
         dx="1"
         dy="1"
         result="offset"
         id="feOffset4283" />
      <feComposite
         in="SourceGraphic"
         in2="offset"
         operator="over"
         result="composite2"
         id="feComposite4285" />
    </filter>
    <filter
       inkscape:label="Pointillism"
       style="color-interpolation-filters:sRGB"
       inkscape:menu-tooltip="Gives a turbulent pointillist HSL sensitive transparency"
       inkscape:menu="Scatter"
       height="1.0079339"
       width="1.0079321"
       y="-0.0039669587"
       x="-0.0039660432"
       id="filter7412">
      <feTurbulence
         seed="50"
         type="fractalNoise"
         baseFrequency="1.5000000000000004"
         numOctaves="1"
         result="result1"
         id="feTurbulence7394" />
      <feColorMatrix
         type="luminanceToAlpha"
         in="SourceGraphic"
         result="result0"
         id="feColorMatrix7396" />
      <feColorMatrix
         result="result2"
         values="1 0 0 0 0 0 1 0 0 0 0 0 1 0 0 0 0 0 0.5 0 "
         id="feColorMatrix7398" />
      <feComposite
         result="result3"
         operator="over"
         in="result1"
         in2="result2"
         id="feComposite7400" />
      <feColorMatrix
         result="result91"
         values="1 0 0 0 0 0 1 0 0 0 0 0 1 0 0 0 0 0 5 -3.2"
         id="feColorMatrix7402" />
      <feComposite
         in2="result91"
         operator="arithmetic"
         k1="1.5"
         result="result93"
         id="feComposite7404"
         k2="0"
         k3="0"
         k4="0" />
      <feComposite
         in2="result93"
         in="SourceGraphic"
         operator="out"
         result="result4"
         id="feComposite7406" />
      <feComposite
         in2="result4"
         operator="arithmetic"
         k2="0.5"
         k1="1"
         id="feComposite7408"
         k3="0"
         k4="0" />
      <feDisplacementMap
         scale="15"
         xChannelSelector="R"
         yChannelSelector="A"
         in2="result1"
         result="result92"
         id="feDisplacementMap7410" />
    </filter>
    <filter
       inkscape:label="Cross Noise"
       inkscape:menu="Overlays"
       inkscape:menu-tooltip="Adds a small scale screen like graininess"
       style="color-interpolation-filters:sRGB"
       id="filter7442"
       x="-0.0039660432"
       y="-0.0039669587"
       width="1.0079321"
       height="1.0079339">
      <feTurbulence
         type="fractalNoise"
         numOctaves="5"
         baseFrequency="3.3356299767127404"
         seed="0"
         result="result0"
         id="feTurbulence7430" />
      <feConvolveMatrix
         kernelMatrix="-2 0 -2 0 -10 0 -2 0 -2 "
         order="3 3"
         result="result5"
         id="feConvolveMatrix7432" />
      <feColorMatrix
         result="result4"
         type="luminanceToAlpha"
         in="result5"
         id="feColorMatrix7434" />
      <feComposite
         in2="result4"
         in="SourceGraphic"
         operator="arithmetic"
         k1="1.5"
         k2="0.5"
         k3="0.5"
         result="result2"
         id="feComposite7436"
         k4="0" />
      <feBlend
         result="result6"
         in2="result4"
         mode="normal"
         id="feBlend7438" />
      <feComposite
         in2="SourceGraphic"
         in="result6"
         operator="in"
         result="result3"
         id="feComposite7440" />
    </filter>
  </defs>
  <g
     inkscape:groupmode="layer"
     id="layer3"
     inkscape:label="back"
     transform="translate(2.4222749,2.5492758)">
    <path
       sodipodi:type="star"
       style="font-variation-settings:normal;opacity:1;vector-effect:none;fill:#217844;fill-opacity:1;fill-rule:evenodd;stroke:#217844;stroke-width:0.502227;stroke-linecap:round;stroke-linejoin:round;stroke-miterlimit:4;stroke-dasharray:none;stroke-dashoffset:0;stroke-opacity:1;-inkscape-stroke:none;stop-color:black;stop-opacity:1"
       id="path4569"
       inkscape:flatsided="false"
       sodipodi:sides="50"
       sodipodi:cx="31.74999"
       sodipodi:cy="31.750013"
       sodipodi:r1="31.669411"
       sodipodi:r2="30.374428"
       sodipodi:arg1="0.8519005"
       sodipodi:arg2="0.91473235"
       inkscape:rounded="0"
       inkscape:randomized="0"
       d="M 52.606012,55.582301 L 50.278473,55.81869 L 49.454579,58.008329 L 47.115765,57.951136 L 46.023933,60.020247 L 43.71073,59.670375 L 42.368179,61.586328 L 40.117067,60.949292 L 38.54497,62.681871 L 36.39145,61.76772 L 34.614599,63.289601 L 32.592634,62.112751 L 30.639053,63.399933 L 28.78053,61.978943 L 26.681026,63.011126 L 25.015255,61.368406 L 22.80294,62.129313 L 21.356192,60.29077 L 19.065954,60.768401 L 17.861045,58.76303 L 15.529003,58.949851 L 14.584935,56.809277 L 12.247867,56.702343 L 11.579528,54.460326 L 9.2742909,54.061322 L 8.8922208,51.753219 L 6.65517,51.068439 L 6.5653947,48.730649 L 4.4318094,47.770892 L 4.6357447,45.440285 L 2.6392729,44.220687 L 3.1337026,41.934017 L 1.3058298,40.473811 L 2.0829565,38.267141 L 0.45250924,36.589357 L 1.5000772,34.497487 L 0.09276868,32.628582 L 1.3942571,30.684502 L 0.23228143,28.653953 L 1.767165,26.888322 L 0.86884727,24.72815 L 2.61292,23.168814 L 1.9924272,20.913086 L 3.9181841,19.584636 L 3.5853017,17.268926 L 5.6623723,16.192313 L 5.6223501,13.853143 L 7.8179778,13.045345 L 8.071447,10.719603 L 10.351006,10.19336 L 10.893969,7.9177258 L 13.221508,7.6813366 L 14.045402,5.4916978 L 16.384216,5.5488907 L 17.476048,3.4797792 L 19.789251,3.8296521 L 21.131802,1.9136991 L 23.382914,2.5507343 L 24.955011,0.81815544 L 27.108531,1.7323066 L 28.885382,0.21042568 L 30.907347,1.3872761 L 32.860928,0.10009406 L 34.719451,1.521084 L 36.818955,0.48890057 L 38.484725,2.1316203 L 40.697041,1.3707135 L 42.143789,3.2092563 L 44.434027,2.7316262 L 45.638936,4.736997 L 47.970978,4.5501761 L 48.915046,6.6907492 L 51.252114,6.7976837 L 51.920453,9.039701 L 54.22569,9.4387045 L 54.60776,11.746808 L 56.844811,12.431588 L 56.934586,14.769377 L 59.068171,15.729134 L 58.864236,18.059742 L 60.860708,19.27934 L 60.366278,21.56601 L 62.194151,23.026215 L 61.417024,25.232885 L 63.047472,26.91067 L 61.999904,29.00254 L 63.407212,30.871444 L 62.105724,32.815524 L 63.267699,34.846074 L 61.732816,36.611705 L 62.631134,38.771877 L 60.887061,40.331213 L 61.507554,42.586941 L 59.581797,43.915391 L 59.914679,46.2311 L 57.837609,47.307714 L 57.877631,49.646884 L 55.682003,50.454682 L 55.428534,52.780424 L 53.148975,53.306667 Z"
       inkscape:transform-center-x="0.32969885"
       inkscape:transform-center-y="-1.1434272"
       transform="matrix(0.41459916,0,0,0.41459916,-2.3566276,-2.4866657)" />
    <circle
       style="font-variation-settings:normal;opacity:1;fill:#fbf8f2;fill-opacity:1;fill-rule:evenodd;stroke:#217844;stroke-width:0.512964;stroke-linecap:round;stroke-linejoin:round;stroke-miterlimit:4;stroke-dasharray:none;stroke-dashoffset:0;stroke-opacity:1;stop-color:black;stop-opacity:1"
       id="path299"
       cx="10.828078"
       cy="10.750322"
       r="12.05463" />
    <circle
       style="font-variation-settings:normal;opacity:1;fill:none;fill-opacity:1;fill-rule:evenodd;stroke:#fffbee;stroke-width:0.307778;stroke-linecap:round;stroke-linejoin:round;stroke-miterlimit:4;stroke-dasharray:none;stroke-dashoffset:0;stroke-opacity:1;stop-color:black;stop-opacity:1"
       id="circle5538"
       cx="10.828079"
       cy="10.750323"
       r="12.435025" />
  </g>
  <g
     inkscape:label="patch"
     inkscape:groupmode="layer"
     id="layer1"
     transform="translate(2.4222749,2.5492758)">
    <g
       aria-label="CERTIFIED
ORGANIC CODE"
       id="text10532"
       style="font-size:9.47139px;line-height:1;font-family:'CMU Sans Serif Demi Condensed';-inkscape-font-specification:'CMU Sans Serif Demi Condensed, ';text-align:center;letter-spacing:0px;text-anchor:middle;fill:#217844;stroke-width:0.537002;stroke-linecap:round;stroke-linejoin:round"
       transform="matrix(0.38775155,0,0,0.38775155,-1.4830341,-1.5607902)">
      <path
         d="M 18.049626,18.032119 Q 18.229582,18.032119 18.229582,18.486745 Q 18.229582,18.941372 18.059097,19.301285 Q 17.888612,19.661198 17.642356,19.860097 Q 17.405571,20.058996 17.102487,20.182124 Q 16.089048,20.62728 15.208209,20.163181 Q 14.763054,19.926397 14.526269,19.604369 Q 14.289484,19.272871 14.147413,18.818244 Q 13.929571,18.136304 13.929571,17.388064 Q 13.929571,16.639824 14.071642,15.986299 Q 14.213713,15.332773 14.507326,14.745546 Q 14.800939,14.148849 15.340808,13.788936 Q 15.880678,13.429023 16.591032,13.429023 Q 16.894116,13.429023 17.216144,13.533209 Q 17.547642,13.627922 17.756013,13.779465 Q 17.964383,13.921536 18.125397,14.22462 Q 18.286411,14.527704 18.286411,14.934974 Q 18.286411,15.370658 18.07804,15.7211 Q 17.983326,15.882113 17.774956,16.014713 Q 17.566585,16.137841 17.282443,16.137841 Q 16.846759,16.137841 16.666803,15.749514 Q 16.591032,15.597972 16.591032,15.418015 Q 16.591032,15.238059 16.71416,15.209645 Q 16.846759,15.171759 16.960416,15.001274 Q 17.074073,14.830789 17.074073,14.603476 Q 17.074073,14.423519 16.979359,14.29092 Q 16.799403,14.054135 16.458432,14.054135 Q 16.117462,14.054135 15.833321,14.366691 Q 15.55865,14.679247 15.41658,15.152816 Q 15.132438,16.099955 15.132438,16.895552 Q 15.132438,17.691149 15.35028,18.17419 Q 15.615479,18.770887 16.022749,18.969786 Q 16.278476,19.092914 16.609975,19.092914 Q 17.168787,19.092914 17.613942,18.590931 Q 17.80337,18.392032 17.926498,18.117361 Q 17.973855,18.032119 18.049626,18.032119 Z"
         style="font-weight:bold;font-family:Aladin;-inkscape-font-specification:'Aladin Bold'"
         id="path362" />
      <path
         d="M 22.861097,19.026615 Q 22.861097,19.689612 22.434884,20.011639 Q 22.018143,20.333666 21.260432,20.333666 Q 20.048094,20.333666 19.470339,19.528598 Q 18.902056,18.72353 18.902056,17.42595 Q 18.902056,17.217579 18.920999,16.819781 H 18.390601 Q 18.31483,16.819781 18.31483,16.762952 Q 18.31483,16.601939 18.475843,16.374626 Q 18.636857,16.147312 18.826285,16.147312 H 19.006241 Q 19.129369,15.465372 19.40404,14.944446 Q 19.688181,14.423519 19.991266,14.139378 Q 20.303822,13.855236 20.673206,13.684751 Q 21.260432,13.400609 21.904487,13.400609 Q 22.548541,13.400609 22.709555,13.60898 Q 22.785326,13.713165 22.785326,13.997307 Q 22.785326,14.271977 22.719026,14.271977 Q 22.709555,14.271977 22.633784,14.234091 Q 22.387527,14.120435 22.018143,14.120435 Q 21.213075,14.120435 20.758448,14.688718 Q 20.313293,15.257002 20.161751,16.147312 Q 20.881576,16.137841 22.112857,16.137841 Q 22.207571,16.137841 22.207571,16.20414 Q 22.207571,16.355683 22.056029,16.592467 Q 21.904487,16.819781 21.715059,16.819781 H 20.08598 Q 20.076508,16.933437 20.076508,17.321764 Q 20.076508,17.70062 20.209108,18.126833 Q 20.351179,18.543574 20.720563,18.837187 Q 21.099418,19.1308 21.696116,19.1308 Q 22.292814,19.1308 22.700083,18.865601 Q 22.74744,18.827715 22.785326,18.827715 Q 22.861097,18.827715 22.861097,19.026615 Z"
         style="font-weight:bold;font-family:Aladin;-inkscape-font-specification:'Aladin Bold'"
         id="path364" />
      <path
         d="M 26.441288,16.61141 Q 26.337103,16.639824 26.337103,16.67771 Q 26.337103,16.706124 26.564416,16.791367 Q 26.79173,16.876609 26.990629,17.056566 Q 27.199,17.236522 27.284242,17.492249 Q 27.416841,17.880576 27.416841,18.325732 Q 27.416841,18.770887 27.483141,19.0645 Q 27.549441,19.348642 27.644155,19.500184 Q 27.833583,19.822211 27.994596,19.897982 L 28.060896,19.935868 Q 28.117724,19.973754 28.117724,20.030582 Q 28.117724,20.172653 27.653626,20.276838 Q 27.189528,20.390495 26.933801,20.390495 Q 26.431817,20.390495 26.289746,19.992696 Q 26.157147,19.585427 26.157147,18.609873 V 18.088947 Q 26.157147,17.264936 25.664634,17.037623 Q 25.475207,16.95238 25.210008,16.95238 H 25.200536 Q 25.115294,16.95238 25.115294,16.791367 Q 25.115294,16.620882 25.210008,16.450397 Q 25.314193,16.279912 25.389964,16.279912 Q 25.70252,16.279912 25.929833,16.166255 Q 26.157147,16.043127 26.261332,15.872642 Q 26.479174,15.512729 26.498117,15.257002 V 15.133873 Q 26.498117,14.783432 26.38446,14.546647 Q 26.270803,14.300391 26.100318,14.205677 Q 25.816177,14.054135 25.522564,14.054135 Q 25.22895,14.054135 25.039523,14.101492 Q 24.774324,14.177263 24.774324,14.262506 Q 24.689081,15.503258 24.689081,16.658767 Q 24.689081,17.804805 24.717495,18.420446 Q 24.755381,19.026615 24.783795,19.40547 Q 24.821681,19.774854 24.821681,19.841154 Q 24.821681,19.964282 24.755381,20.011639 Q 24.367054,20.371552 23.533572,20.371552 Q 23.391501,20.371552 23.391501,20.276838 Q 23.391501,20.248424 23.419915,20.144239 Q 23.514629,19.926397 23.552514,18.761416 Q 23.599871,17.596435 23.599871,16.639824 Q 23.599871,15.673743 23.561986,15.077045 Q 23.505157,14.177263 23.372558,13.997307 Q 23.268373,13.864707 23.268373,13.81735 Q 23.268373,13.760522 23.372558,13.703694 Q 23.978727,13.419552 25.56992,13.419552 Q 26.848558,13.419552 27.483141,14.139378 Q 27.824111,14.537176 27.824111,15.133873 Q 27.824111,15.493786 27.68204,15.777928 Q 27.53997,16.06207 27.331599,16.213612 Q 26.933801,16.516696 26.583359,16.582996 Z"
         style="font-weight:bold;font-family:Aladin;-inkscape-font-specification:'Aladin Bold'"
         id="path366" />
      <path
         d="M 29.017505,13.457437 L 30.381385,13.533209 Q 31.290639,13.533209 31.688437,13.315367 Q 31.745265,13.277481 31.783151,13.277481 Q 31.830508,13.277481 31.830508,13.410081 Q 31.830508,13.54268 31.669494,13.845764 Q 31.43271,14.309863 30.987554,14.309863 L 30.466628,14.300391 Q 30.390857,14.300391 30.371914,14.385634 Q 30.305614,15.777928 30.305614,17.397536 Q 30.305614,19.007672 30.438214,19.822211 V 19.869568 Q 30.438214,20.106353 29.983587,20.248424 Q 29.538432,20.390495 29.140633,20.390495 Q 28.951205,20.390495 28.951205,20.286309 Q 28.951205,20.257895 28.97962,20.15371 Q 29.083805,19.945339 29.159576,18.136304 Q 29.244819,16.327269 29.244819,15.408544 L 29.225876,14.376162 Q 29.225876,14.319334 29.169047,14.309863 Q 28.970148,14.271977 28.714421,14.271977 Q 28.202966,14.271977 27.95671,14.480348 Q 27.89041,14.527704 27.833581,14.527704 Q 27.767282,14.527704 27.767282,14.451933 Q 27.767282,14.338277 27.89041,14.139378 Q 28.004066,13.940478 28.136666,13.798407 Q 28.458693,13.457437 29.017505,13.457437 Z"
         style="font-weight:bold;font-family:Aladin;-inkscape-font-specification:'Aladin Bold'"
         id="path368" />
      <path
         d="M 33.573246,16.005241 Q 33.573246,18.941372 33.705846,19.850626 Q 33.705846,20.077939 33.270162,20.22001 Q 32.834478,20.371552 32.550336,20.371552 Q 32.266194,20.371552 32.266194,20.286309 Q 32.266194,20.229481 32.294609,20.144239 Q 32.474565,19.74644 32.474565,16.942909 Q 32.474565,14.29092 32.247252,13.997307 L 32.209366,13.940478 Q 32.152538,13.893121 32.152538,13.826822 Q 32.152538,13.751051 32.256723,13.703694 Q 32.398794,13.618451 32.758707,13.533209 Q 33.128091,13.447966 33.421704,13.447966 Q 33.715317,13.447966 33.715317,13.580566 V 13.60898 Q 33.60166,14.594004 33.573246,16.005241 Z"
         style="font-weight:bold;font-family:Aladin;-inkscape-font-specification:'Aladin Bold'"
         id="path370" />
      <path
         d="M 34.77612,18.496217 L 34.832948,16.819781 H 34.198365 Q 34.122594,16.819781 34.122594,16.762952 Q 34.122594,16.592467 34.283607,16.374626 Q 34.444621,16.147312 34.634049,16.147312 H 34.832948 Q 34.814005,15.408544 34.795063,15.086516 Q 34.757177,14.508762 34.605635,14.196206 L 34.558278,14.101492 Q 34.520392,14.054135 34.520392,13.987835 Q 34.520392,13.921536 34.624577,13.874179 Q 34.728763,13.826822 34.927662,13.760522 Q 35.136033,13.694222 35.79903,13.590037 Q 36.462027,13.47638 37.238681,13.47638 Q 38.024806,13.47638 38.091106,13.590037 Q 38.166877,13.703694 38.166877,13.94995 Q 38.166877,14.186734 38.100578,14.186734 Q 38.091106,14.186734 38.034278,14.177263 Q 37.882736,14.139378 37.57018,14.139378 Q 37.257624,14.139378 36.897711,14.196206 Q 36.537798,14.253034 36.34837,14.309863 L 36.168414,14.376162 Q 36.092643,14.395105 36.054757,14.508762 Q 35.978986,15.067574 35.978986,16.147312 H 37.513351 Q 37.598594,16.147312 37.598594,16.20414 Q 37.598594,16.374626 37.447052,16.601939 Q 37.295509,16.829252 37.106082,16.829252 L 35.978986,16.819781 L 36.045286,19.661198 Q 36.045286,19.869568 35.978986,19.964282 Q 35.79903,20.201067 35.363346,20.314724 Q 34.937133,20.437852 34.652992,20.437852 Q 34.577221,20.437852 34.577221,20.343138 Q 34.577221,20.295781 34.586692,20.267367 Q 34.700349,20.106353 34.77612,18.496217 Z"
         style="font-weight:bold;font-family:Aladin;-inkscape-font-specification:'Aladin Bold'"
         id="path372" />
      <path
         d="M 39.748596,16.005241 Q 39.748596,18.941372 39.881196,19.850626 Q 39.881196,20.077939 39.445512,20.22001 Q 39.009828,20.371552 38.725686,20.371552 Q 38.441545,20.371552 38.441545,20.286309 Q 38.441545,20.229481 38.469959,20.144239 Q 38.649915,19.74644 38.649915,16.942909 Q 38.649915,14.29092 38.422602,13.997307 L 38.384716,13.940478 Q 38.327888,13.893121 38.327888,13.826822 Q 38.327888,13.751051 38.432073,13.703694 Q 38.574144,13.618451 38.934057,13.533209 Q 39.303441,13.447966 39.597054,13.447966 Q 39.890667,13.447966 39.890667,13.580566 V 13.60898 Q 39.777011,14.594004 39.748596,16.005241 Z"
         style="font-weight:bold;font-family:Aladin;-inkscape-font-specification:'Aladin Bold'"
         id="path374" />
      <path
         d="M 44.664255,19.026615 Q 44.664255,19.689612 44.238042,20.011639 Q 43.821301,20.333666 43.06359,20.333666 Q 41.851252,20.333666 41.273497,19.528598 Q 40.705214,18.72353 40.705214,17.42595 Q 40.705214,17.217579 40.724157,16.819781 H 40.193759 Q 40.117988,16.819781 40.117988,16.762952 Q 40.117988,16.601939 40.279001,16.374626 Q 40.440015,16.147312 40.629443,16.147312 H 40.809399 Q 40.932527,15.465372 41.207197,14.944446 Q 41.491339,14.423519 41.794424,14.139378 Q 42.106979,13.855236 42.476364,13.684751 Q 43.06359,13.400609 43.707644,13.400609 Q 44.351699,13.400609 44.512712,13.60898 Q 44.588484,13.713165 44.588484,13.997307 Q 44.588484,14.271977 44.522184,14.271977 Q 44.512712,14.271977 44.436941,14.234091 Q 44.190685,14.120435 43.821301,14.120435 Q 43.016233,14.120435 42.561606,14.688718 Q 42.116451,15.257002 41.964909,16.147312 Q 42.684734,16.137841 43.916015,16.137841 Q 44.010729,16.137841 44.010729,16.20414 Q 44.010729,16.355683 43.859187,16.592467 Q 43.707644,16.819781 43.518217,16.819781 H 41.889138 Q 41.879666,16.933437 41.879666,17.321764 Q 41.879666,17.70062 42.012266,18.126833 Q 42.154336,18.543574 42.523721,18.837187 Q 42.902576,19.1308 43.499274,19.1308 Q 44.095971,19.1308 44.503241,18.865601 Q 44.550598,18.827715 44.588484,18.827715 Q 44.664255,18.827715 44.664255,19.026615 Z"
         style="font-weight:bold;font-family:Aladin;-inkscape-font-specification:'Aladin Bold'"
         id="path376" />
      <path
         d="M 47.069994,14.063606 Q 46.899509,14.063606 46.776381,14.120435 Q 46.653253,14.177263 46.653253,14.262506 Q 46.539596,14.660304 46.539596,16.639824 Q 46.539596,18.609873 46.530125,18.846658 Q 46.710081,19.1308 47.088937,19.1308 Q 47.761405,19.1308 48.102375,18.392032 Q 48.443345,17.643792 48.443345,16.526168 Q 48.443345,15.399072 48.111847,14.736075 Q 47.780348,14.063606 47.069994,14.063606 Z M 45.260958,20.305252 Q 45.118888,20.286309 45.118888,20.22001 L 45.147302,20.106353 Q 45.384086,19.594898 45.384086,16.421982 Q 45.384086,14.90656 45.298844,14.527704 Q 45.223073,14.148849 45.175716,14.044664 L 45.128359,13.94995 Q 45.090473,13.912064 45.090473,13.845764 Q 45.090473,13.769993 45.20413,13.722636 Q 45.942898,13.429023 47.145765,13.429023 Q 49.674626,13.429023 49.674626,16.649296 Q 49.674626,17.908991 49.229471,18.950844 Q 49.049514,19.348642 48.81273,19.642255 Q 48.575945,19.926397 48.187618,20.125296 Q 47.808762,20.314724 47.344664,20.314724 Q 47.24995,20.305252 47.098408,20.286309 Q 46.956337,20.267367 46.662724,20.144239 Q 46.378582,20.021111 46.274397,19.822211 Q 45.923956,20.305252 45.260958,20.305252 Z"
         style="font-weight:bold;font-family:Aladin;-inkscape-font-specification:'Aladin Bold'"
         id="path378" />
      <path
         d="M 7.3327469,24.177413 Q 6.9917768,24.177413 6.7644635,24.423669 Q 6.3666651,24.859353 6.3666651,25.531822 Q 6.3666651,26.194819 6.7076351,26.327418 Q 6.7928776,26.355833 6.7928776,26.450546 Q 6.7928776,26.734688 6.6034498,26.933587 Q 6.4140221,27.123015 6.1393517,27.160901 Q 6.0541092,27.160901 6.0541092,27.2272 Q 6.0446378,27.331386 6.0446378,27.530285 Q 6.0446378,27.719713 6.0635806,27.956497 Q 6.0825234,28.183811 6.1488231,28.505838 Q 6.2245943,28.818394 6.3382509,29.055179 Q 6.461379,29.282492 6.679221,29.452977 Q 6.9065343,29.613991 7.2569757,29.613991 Q 7.6168886,29.613991 7.9010302,29.329849 Q 8.1851719,29.045707 8.2988286,28.591081 Q 8.5071992,27.795484 8.5071992,27.066187 Q 8.5071992,26.327418 8.4124853,25.768606 Q 8.3177714,25.209794 8.1851719,24.916181 Q 8.0620439,24.622568 7.8820875,24.442612 Q 7.7021311,24.262655 7.579003,24.22477 Q 7.4558749,24.177413 7.3327469,24.177413 Z M 5.6089539,25.11508 L 5.6468395,25.058252 Q 5.7415534,24.622568 5.949924,24.310012 Q 6.1677659,23.987985 6.3761365,23.836443 Q 6.5939785,23.675429 6.8591774,23.590187 Q 7.2096188,23.47653 7.4748177,23.47653 Q 8.1094008,23.47653 8.5640275,23.770143 Q 9.0281256,24.063756 9.2649104,24.56574 Q 9.7005943,25.52235 9.7005943,26.734688 Q 9.7005943,28.771037 8.7534553,29.699233 Q 8.2893572,30.15386 7.7305452,30.314873 Q 7.3801038,30.419059 7.0580766,30.419059 Q 5.8741528,30.419059 5.3153408,29.613991 Q 4.7565288,28.799451 4.7565288,27.558699 Q 4.7565288,26.838873 4.8796569,26.242176 Q 5.002785,25.636007 5.1353844,25.389751 L 5.2585125,25.143495 Q 5.2963981,25.058252 5.3816406,25.058252 Q 5.4668831,25.058252 5.5047686,25.077195 Q 5.5521256,25.086666 5.5710684,25.105609 Q 5.5994825,25.11508 5.6089539,25.11508 Z"
         style="font-weight:bold;font-family:Aladin;-inkscape-font-specification:'Aladin Bold'"
         id="path380" />
      <path
         d="M 13.337611,26.668388 Q 13.233425,26.696803 13.233425,26.734688 Q 13.233425,26.763102 13.460739,26.848345 Q 13.688052,26.933587 13.886951,27.113544 Q 14.095322,27.2935 14.180564,27.549228 Q 14.313164,27.937555 14.313164,28.38271 Q 14.313164,28.827865 14.379463,29.121478 Q 14.445763,29.40562 14.540477,29.557162 Q 14.729905,29.87919 14.890919,29.954961 L 14.957218,29.992846 Q 15.014047,30.030732 15.014047,30.08756 Q 15.014047,30.229631 14.549948,30.333816 Q 14.08585,30.447473 13.830123,30.447473 Q 13.328139,30.447473 13.186068,30.049675 Q 13.053469,29.642405 13.053469,28.666852 V 28.145925 Q 13.053469,27.321914 12.560957,27.094601 Q 12.371529,27.009358 12.10633,27.009358 H 12.096859 Q 12.011616,27.009358 12.011616,26.848345 Q 12.011616,26.67786 12.10633,26.507375 Q 12.210515,26.33689 12.286286,26.33689 Q 12.598842,26.33689 12.826156,26.223233 Q 13.053469,26.100105 13.157654,25.92962 Q 13.375496,25.569707 13.394439,25.31398 V 25.190852 Q 13.394439,24.84041 13.280782,24.603625 Q 13.167126,24.357369 12.996641,24.262655 Q 12.712499,24.111113 12.418886,24.111113 Q 12.125273,24.111113 11.935845,24.15847 Q 11.670646,24.234241 11.670646,24.319484 Q 11.585403,25.560236 11.585403,26.715745 Q 11.585403,27.861784 11.613818,28.477424 Q 11.651703,29.083593 11.680117,29.462448 Q 11.718003,29.831833 11.718003,29.898132 Q 11.718003,30.02126 11.651703,30.068617 Q 11.263376,30.42853 10.429894,30.42853 Q 10.287823,30.42853 10.287823,30.333816 Q 10.287823,30.305402 10.316237,30.201217 Q 10.410951,29.983375 10.448837,28.818394 Q 10.496194,27.653413 10.496194,26.696803 Q 10.496194,25.730721 10.458308,25.134023 Q 10.40148,24.234241 10.26888,24.054285 Q 10.164695,23.921685 10.164695,23.874328 Q 10.164695,23.8175 10.26888,23.760672 Q 10.875049,23.47653 12.466243,23.47653 Q 13.74488,23.47653 14.379463,24.196356 Q 14.720433,24.594154 14.720433,25.190852 Q 14.720433,25.550764 14.578363,25.834906 Q 14.436292,26.119048 14.227921,26.27059 Q 13.830123,26.573674 13.479681,26.639974 Z"
         style="font-weight:bold;font-family:Aladin;-inkscape-font-specification:'Aladin Bold'"
         id="path382" />
      <path
         d="M 18.461631,27.473457 Q 18.461631,27.255615 18.196432,27.236672 H 17.523964 Q 17.448193,27.236672 17.448193,27.189315 Q 17.505021,26.914645 17.647092,26.753631 Q 17.789163,26.583146 17.883877,26.564203 Q 18.149075,26.526318 18.755244,26.526318 Q 19.361413,26.526318 19.512956,26.535789 Q 19.664498,26.535789 19.702383,26.564203 Q 19.740269,26.61156 19.740269,26.67786 Q 19.740269,26.734688 19.702383,27.463985 Q 19.673969,28.183811 19.673969,28.761566 Q 19.673969,29.329849 19.711855,29.481391 Q 19.74974,29.623462 19.74974,29.661348 Q 19.74974,29.81289 19.484541,29.992846 Q 19.219342,30.163331 18.679473,30.295931 Q 18.149075,30.42853 17.505021,30.42853 Q 16.643124,30.42853 16.008541,29.831833 Q 15.516029,29.358263 15.326601,28.799451 Q 15.146645,28.240639 15.146645,27.2272 Q 15.146645,23.467059 17.902819,23.467059 Q 18.366917,23.467059 18.736302,23.571244 Q 19.105686,23.665958 19.380356,23.959571 Q 19.664498,24.243713 19.664498,24.698339 Q 19.664498,24.935124 19.569784,25.18138 Q 19.399299,25.683364 18.812073,25.683364 Q 18.490045,25.683364 18.31956,25.52235 Q 18.158547,25.351865 18.158547,25.058252 Q 18.158547,24.944595 18.281675,24.916181 Q 18.461631,24.811996 18.461631,24.56574 Q 18.461631,24.310012 18.272203,24.177413 Q 18.082776,24.035342 17.874405,24.035342 Q 17.419778,24.035342 17.107223,24.366841 Q 16.794667,24.688868 16.652596,25.219266 Q 16.415811,26.166405 16.415811,27.151429 Q 16.415811,28.761566 17.201936,29.291963 Q 17.49555,29.500334 17.817577,29.500334 Q 18.414274,29.500334 18.45216,29.282492 Q 18.480574,28.988879 18.480574,28.373239 Z"
         style="font-weight:bold;font-family:Aladin;-inkscape-font-specification:'Aladin Bold'"
         id="path384" />
      <path
         d="M 22.723763,24.830939 Q 21.975523,25.768606 21.644024,26.706274 H 21.653496 Q 22.970019,26.706274 23.159447,26.715745 Q 23.358346,26.715745 23.377289,26.696803 Q 23.396232,26.67786 23.405703,26.649446 Q 23.244689,25.484465 23.149975,25.067724 Q 23.055262,24.641511 22.960548,24.641511 Q 22.865834,24.641511 22.723763,24.830939 Z M 21.880809,29.291963 L 22.08918,29.254078 Q 22.183894,29.254078 22.183894,29.358263 Q 22.183894,29.689762 22.051294,29.917075 Q 21.918695,30.144388 21.719796,30.239102 Q 21.397768,30.400116 21.170455,30.400116 Q 20.734771,30.400116 20.516929,30.078089 Q 20.299087,29.74659 20.299087,29.093064 Q 20.299087,28.430067 20.659,27.378743 H 20.109659 Q 20.005474,27.378743 20.005474,27.274557 Q 20.005474,27.170372 20.166488,26.943059 Q 20.327501,26.706274 20.507458,26.706274 H 20.93367 Q 21.606139,25.209794 22.515392,24.120585 Q 22.752177,23.836443 23.093147,23.590187 Q 23.443589,23.343931 23.633016,23.343931 Q 23.822444,23.343931 23.917158,23.514416 Q 24.163414,23.912214 24.494913,26.422132 Q 24.608569,27.501871 24.88324,28.65738 Q 25.167381,29.803418 25.404166,29.992846 Q 25.460995,30.030732 25.460995,30.08756 Q 25.460995,30.229631 25.053725,30.352759 Q 24.655926,30.475887 24.438084,30.475887 Q 24.229714,30.475887 24.116057,30.419059 Q 24.002401,30.371702 23.973986,30.314873 Q 23.803501,29.945489 23.633016,28.553195 L 23.576188,28.10804 Q 23.538302,27.662884 23.500417,27.435571 L 23.434117,27.388214 L 21.454597,27.378743 Q 21.34094,27.861784 21.34094,28.221696 Q 21.34094,28.581609 21.359883,28.752094 Q 21.388297,28.913108 21.520896,29.102536 Q 21.653496,29.291963 21.880809,29.291963 Z"
         style="font-weight:bold;font-family:Aladin;-inkscape-font-specification:'Aladin Bold'"
         id="path386" />
      <path
         d="M 29.277964,27.2935 L 29.268493,26.166405 Q 29.268493,24.489969 29.154836,23.940628 Q 29.135893,23.874328 29.135893,23.836443 Q 29.135893,23.675429 29.457921,23.561773 Q 29.779948,23.448116 29.969376,23.448116 Q 30.158803,23.448116 30.158803,23.561773 Q 30.158803,23.571244 30.139861,23.665958 Q 29.922019,24.830939 29.922019,27.369271 Q 29.922019,29.102536 30.120918,29.860247 Q 30.158803,29.983375 30.158803,29.992846 Q 30.158803,30.191745 29.72312,30.314873 Q 29.287436,30.447473 29.107479,30.447473 Q 28.823337,30.447473 28.719152,30.314873 Q 28.510782,30.049675 28.037212,28.827865 Q 27.573114,27.596585 27.222673,26.535789 L 26.86276,25.474993 Q 26.843817,25.427636 26.815403,25.427636 Q 26.777517,25.427636 26.73016,25.493936 Q 26.682803,26.374775 26.682803,27.255615 Q 26.682803,28.136454 26.692275,28.610023 Q 26.711218,29.083593 26.73016,29.329849 Q 26.749103,29.576105 26.768046,29.727647 Q 26.786989,29.869718 26.79646,29.936018 Q 26.815403,30.002318 26.815403,30.030732 Q 26.815403,30.210688 26.502847,30.305402 Q 26.190291,30.409587 25.934564,30.409587 Q 25.688307,30.409587 25.688307,30.295931 Q 25.688307,30.239102 25.716722,30.15386 Q 25.745136,30.068617 25.783021,29.936018 Q 25.877735,29.604519 25.915621,28.733151 Q 25.953506,27.852312 25.953506,26.734688 Q 25.953506,25.607593 25.925092,25.096138 Q 25.877735,24.262655 25.754607,23.978514 Q 25.726193,23.9501 25.726193,23.902743 Q 25.726193,23.7512 26.228177,23.609129 Q 26.73016,23.467059 27.004831,23.467059 Q 27.288972,23.467059 27.336329,23.47653 Q 27.468929,23.467059 27.497343,23.628072 Q 27.772013,24.622568 28.264525,25.967506 Q 28.766509,27.312443 29.154836,28.022797 Q 29.202193,28.070154 29.230607,28.070154 Q 29.277964,28.070154 29.277964,27.2935 Z"
         style="font-weight:bold;font-family:Aladin;-inkscape-font-specification:'Aladin Bold'"
         id="path388" />
      <path
         d="M 32.242504,26.062219 Q 32.242504,28.99835 32.375104,29.907604 Q 32.375104,30.134917 31.93942,30.276988 Q 31.503736,30.42853 31.219594,30.42853 Q 30.935453,30.42853 30.935453,30.343288 Q 30.935453,30.286459 30.963867,30.201217 Q 31.143823,29.803418 31.143823,26.999887 Q 31.143823,24.347898 30.91651,24.054285 L 30.878624,23.997456 Q 30.821796,23.9501 30.821796,23.8838 Q 30.821796,23.808029 30.925981,23.760672 Q 31.068052,23.675429 31.427965,23.590187 Q 31.797349,23.504944 32.090962,23.504944 Q 32.384575,23.504944 32.384575,23.637544 V 23.665958 Q 32.270919,24.650982 32.242504,26.062219 Z"
         style="font-weight:bold;font-family:Aladin;-inkscape-font-specification:'Aladin Bold'"
         id="path390" />
      <path
         d="M 37.139222,28.089097 Q 37.319178,28.089097 37.319178,28.543724 Q 37.319178,28.99835 37.148693,29.358263 Q 36.978208,29.718176 36.731952,29.917075 Q 36.495167,30.115974 36.192083,30.239102 Q 35.178644,30.684258 34.297805,30.22016 Q 33.85265,29.983375 33.615865,29.661348 Q 33.37908,29.329849 33.237009,28.875222 Q 33.019167,28.193282 33.019167,27.445042 Q 33.019167,26.696803 33.161238,26.043277 Q 33.303309,25.389751 33.596922,24.802525 Q 33.890535,24.205827 34.430404,23.845914 Q 34.970274,23.486001 35.680628,23.486001 Q 35.983712,23.486001 36.305739,23.590187 Q 36.637238,23.684901 36.845609,23.836443 Q 37.053979,23.978514 37.214993,24.281598 Q 37.376007,24.584683 37.376007,24.991952 Q 37.376007,25.427636 37.167636,25.778078 Q 37.072922,25.939091 36.864551,26.071691 Q 36.656181,26.194819 36.372039,26.194819 Q 35.936355,26.194819 35.756399,25.806492 Q 35.680628,25.65495 35.680628,25.474993 Q 35.680628,25.295037 35.803756,25.266623 Q 35.936355,25.228737 36.050012,25.058252 Q 36.163669,24.887767 36.163669,24.660454 Q 36.163669,24.480497 36.068955,24.347898 Q 35.888998,24.111113 35.548028,24.111113 Q 35.207058,24.111113 34.922917,24.423669 Q 34.648246,24.736225 34.506175,25.209794 Q 34.222034,26.156933 34.222034,26.95253 Q 34.222034,27.748127 34.439876,28.231168 Q 34.705075,28.827865 35.112344,29.026764 Q 35.368072,29.149893 35.699571,29.149893 Q 36.258383,29.149893 36.703538,28.647909 Q 36.892966,28.44901 37.016094,28.174339 Q 37.063451,28.089097 37.139222,28.089097 Z"
         style="font-weight:bold;font-family:Aladin;-inkscape-font-specification:'Aladin Bold'"
         id="path392" />
      <path
         d="M 43.636601,28.089097 Q 43.816557,28.089097 43.816557,28.543724 Q 43.816557,28.99835 43.646072,29.358263 Q 43.475587,29.718176 43.229331,29.917075 Q 42.992547,30.115974 42.689462,30.239102 Q 41.676023,30.684258 40.795184,30.22016 Q 40.350029,29.983375 40.113244,29.661348 Q 39.876459,29.329849 39.734388,28.875222 Q 39.516547,28.193282 39.516547,27.445042 Q 39.516547,26.696803 39.658617,26.043277 Q 39.800688,25.389751 40.094301,24.802525 Q 40.387914,24.205827 40.927784,23.845914 Q 41.467653,23.486001 42.178007,23.486001 Q 42.481092,23.486001 42.803119,23.590187 Q 43.134617,23.684901 43.342988,23.836443 Q 43.551359,23.978514 43.712372,24.281598 Q 43.873386,24.584683 43.873386,24.991952 Q 43.873386,25.427636 43.665015,25.778078 Q 43.570301,25.939091 43.361931,26.071691 Q 43.15356,26.194819 42.869419,26.194819 Q 42.433735,26.194819 42.253778,25.806492 Q 42.178007,25.65495 42.178007,25.474993 Q 42.178007,25.295037 42.301135,25.266623 Q 42.433735,25.228737 42.547391,25.058252 Q 42.661048,24.887767 42.661048,24.660454 Q 42.661048,24.480497 42.566334,24.347898 Q 42.386378,24.111113 42.045408,24.111113 Q 41.704438,24.111113 41.420296,24.423669 Q 41.145626,24.736225 41.003555,25.209794 Q 40.719413,26.156933 40.719413,26.95253 Q 40.719413,27.748127 40.937255,28.231168 Q 41.202454,28.827865 41.609724,29.026764 Q 41.865451,29.149893 42.19695,29.149893 Q 42.755762,29.149893 43.200917,28.647909 Q 43.390345,28.44901 43.513473,28.174339 Q 43.56083,28.089097 43.636601,28.089097 Z"
         style="font-weight:bold;font-family:Aladin;-inkscape-font-specification:'Aladin Bold'"
         id="path394" />
      <path
         d="M 46.818995,24.177413 Q 46.478025,24.177413 46.250711,24.423669 Q 45.852913,24.859353 45.852913,25.531822 Q 45.852913,26.194819 46.193883,26.327418 Q 46.279126,26.355833 46.279126,26.450546 Q 46.279126,26.734688 46.089698,26.933587 Q 45.90027,27.123015 45.6256,27.160901 Q 45.540357,27.160901 45.540357,27.2272 Q 45.530886,27.331386 45.530886,27.530285 Q 45.530886,27.719713 45.549829,27.956497 Q 45.568771,28.183811 45.635071,28.505838 Q 45.710842,28.818394 45.824499,29.055179 Q 45.947627,29.282492 46.165469,29.452977 Q 46.392782,29.613991 46.743224,29.613991 Q 47.103137,29.613991 47.387278,29.329849 Q 47.67142,29.045707 47.785077,28.591081 Q 47.993447,27.795484 47.993447,27.066187 Q 47.993447,26.327418 47.898733,25.768606 Q 47.804019,25.209794 47.67142,24.916181 Q 47.548292,24.622568 47.368335,24.442612 Q 47.188379,24.262655 47.065251,24.22477 Q 46.942123,24.177413 46.818995,24.177413 Z M 45.095202,25.11508 L 45.133087,25.058252 Q 45.227801,24.622568 45.436172,24.310012 Q 45.654014,23.987985 45.862385,23.836443 Q 46.080226,23.675429 46.345425,23.590187 Q 46.695867,23.47653 46.961066,23.47653 Q 47.595649,23.47653 48.050276,23.770143 Q 48.514374,24.063756 48.751158,24.56574 Q 49.186842,25.52235 49.186842,26.734688 Q 49.186842,28.771037 48.239703,29.699233 Q 47.775605,30.15386 47.216793,30.314873 Q 46.866352,30.419059 46.544325,30.419059 Q 45.360401,30.419059 44.801589,29.613991 Q 44.242777,28.799451 44.242777,27.558699 Q 44.242777,26.838873 44.365905,26.242176 Q 44.489033,25.636007 44.621632,25.389751 L 44.744761,25.143495 Q 44.782646,25.058252 44.867889,25.058252 Q 44.953131,25.058252 44.991017,25.077195 Q 45.038374,25.086666 45.057316,25.105609 Q 45.085731,25.11508 45.095202,25.11508 Z"
         style="font-weight:bold;font-family:Aladin;-inkscape-font-specification:'Aladin Bold'"
         id="path396" />
      <path
         d="M 51.649408,24.120585 Q 51.478923,24.120585 51.355795,24.177413 Q 51.232667,24.234241 51.232667,24.319484 Q 51.11901,24.717282 51.11901,26.696803 Q 51.11901,28.666852 51.109539,28.903636 Q 51.289495,29.187778 51.668351,29.187778 Q 52.34082,29.187778 52.68179,28.44901 Q 53.02276,27.70077 53.02276,26.583146 Q 53.02276,25.456051 52.691261,24.793053 Q 52.359762,24.120585 51.649408,24.120585 Z M 49.840373,30.36223 Q 49.698302,30.343288 49.698302,30.276988 L 49.726716,30.163331 Q 49.963501,29.651876 49.963501,26.478961 Q 49.963501,24.963538 49.878258,24.584683 Q 49.802487,24.205827 49.75513,24.101642 L 49.707773,24.006928 Q 49.669888,23.969042 49.669888,23.902743 Q 49.669888,23.826971 49.783544,23.779615 Q 50.522313,23.486001 51.725179,23.486001 Q 54.25404,23.486001 54.25404,26.706274 Q 54.25404,27.965969 53.808885,29.007822 Q 53.628929,29.40562 53.392144,29.699233 Q 53.155359,29.983375 52.767032,30.182274 Q 52.388177,30.371702 51.924078,30.371702 Q 51.829365,30.36223 51.677822,30.343288 Q 51.535751,30.324345 51.242138,30.201217 Q 50.957997,30.078089 50.853811,29.87919 Q 50.50337,30.36223 49.840373,30.36223 Z"
         style="font-weight:bold;font-family:Aladin;-inkscape-font-specification:'Aladin Bold'"
         id="path398" />
      <path
         d="M 58.743473,29.083593 Q 58.743473,29.74659 58.31726,30.068617 Q 57.900519,30.390645 57.142808,30.390645 Q 55.93047,30.390645 55.352715,29.585576 Q 54.784432,28.780508 54.784432,27.482928 Q 54.784432,27.274557 54.803374,26.876759 H 54.272977 Q 54.197206,26.876759 54.197206,26.819931 Q 54.197206,26.658917 54.358219,26.431604 Q 54.519233,26.20429 54.708661,26.20429 H 54.888617 Q 55.011745,25.52235 55.286415,25.001424 Q 55.570557,24.480497 55.873642,24.196356 Q 56.186197,23.912214 56.555582,23.741729 Q 57.142808,23.457587 57.786862,23.457587 Q 58.430917,23.457587 58.59193,23.665958 Q 58.667702,23.770143 58.667702,24.054285 Q 58.667702,24.328955 58.601402,24.328955 Q 58.59193,24.328955 58.516159,24.29107 Q 58.269903,24.177413 57.900519,24.177413 Q 57.095451,24.177413 56.640824,24.745696 Q 56.195669,25.31398 56.044127,26.20429 Q 56.763952,26.194819 57.995233,26.194819 Q 58.089947,26.194819 58.089947,26.261119 Q 58.089947,26.412661 57.938404,26.649446 Q 57.786862,26.876759 57.597434,26.876759 H 55.968355 Q 55.958884,26.990416 55.958884,27.378743 Q 55.958884,27.757598 56.091483,28.183811 Q 56.233554,28.600552 56.602939,28.894165 Q 56.981794,29.187778 57.578492,29.187778 Q 58.175189,29.187778 58.582459,28.922579 Q 58.629816,28.884694 58.667702,28.884694 Q 58.743473,28.884694 58.743473,29.083593 Z"
         style="font-weight:bold;font-family:Aladin;-inkscape-font-specification:'Aladin Bold'"
         id="path400" />
    </g>
    <g
       aria-label="NO AI INVOLVED"
       id="text10536"
       style="font-size:5.64444px;font-family:'CMU Sans Serif Demi Condensed';-inkscape-font-specification:'CMU Sans Serif Demi Condensed, ';letter-spacing:0.529167px;fill:#217844;stroke-width:0.537001;stroke-linecap:round;stroke-linejoin:round"
       transform="matrix(0.38775155,0,0,0.38775155,-1.4830341,-1.5607902)">
      <path
         d="M 10.683147,46.198706 L 11.421241,47.125911 L 10.145257,50.054469 L 12.353298,48.296777 L 12.979819,49.083822 L 9.7604782,51.646551 L 9.0223849,50.719346 L 10.298369,47.790789 L 8.0903275,49.548481 L 7.4638064,48.761435 Z"
         style="font-weight:bold;font-family:'DejaVu Sans';-inkscape-font-specification:'DejaVu Sans Bold'"
         id="path403" />
      <path
         d="M 14.510668,51.454402 Q 14.145811,51.13476 13.708625,51.22809 Q 13.27144,51.32142 12.842828,51.810661 Q 12.416033,52.297828 12.38102,52.743491 Q 12.346007,53.189155 12.710864,53.508797 Q 13.077794,53.830255 13.51498,53.736925 Q 13.952165,53.643595 14.37896,53.156427 Q 14.807572,52.667187 14.842585,52.221524 Q 14.877598,51.77586 14.510668,51.454402 Z M 15.017374,50.87602 Q 15.763673,51.529834 15.812449,52.327377 Q 15.861225,53.124921 15.201962,53.877439 Q 14.544516,54.627884 13.747487,54.684438 Q 12.950457,54.740992 12.204158,54.087179 Q 11.459932,53.435181 11.409083,52.635821 Q 11.360307,51.838278 12.017754,51.087833 Q 12.677016,50.335315 13.474045,50.278761 Q 14.273148,50.224022 15.017374,50.87602 Z"
         style="font-weight:bold;font-family:'DejaVu Sans';-inkscape-font-specification:'DejaVu Sans Bold'"
         id="path405" />
      <path
         d="M 19.6386,57.946751 L 18.152605,57.208767 L 17.584663,57.76372 L 16.629381,57.289301 L 19.824673,54.281852 L 20.957682,54.844535 L 20.492473,59.207816 L 19.53719,58.733398 Z M 18.729145,56.642697 L 19.738733,57.144085 L 19.963351,55.427757 Z"
         style="font-weight:bold;font-family:'DejaVu Sans';-inkscape-font-specification:'DejaVu Sans Bold'"
         id="path407" />
      <path
         d="M 22.874874,55.642063 L 23.877356,55.989825 L 22.528763,59.877373 L 21.52628,59.529611 Z"
         style="font-weight:bold;font-family:'DejaVu Sans';-inkscape-font-specification:'DejaVu Sans Bold'"
         id="path409" />
      <path
         d="M 27.127481,56.81224 L 28.174722,56.983108 L 27.512108,61.044226 L 26.464867,60.873358 Z"
         style="font-weight:bold;font-family:'DejaVu Sans';-inkscape-font-specification:'DejaVu Sans Bold'"
         id="path411" />
      <path
         d="M 29.187283,57.167739 L 30.37189,57.202313 L 31.785467,60.066992 L 31.867802,57.245973 L 32.873341,57.275321 L 32.753296,61.388388 L 31.568688,61.353814 L 30.155112,58.489135 L 30.072777,61.310154 L 29.067238,61.280806 Z"
         style="font-weight:bold;font-family:'DejaVu Sans';-inkscape-font-specification:'DejaVu Sans Bold'"
         id="path413" />
      <path
         d="M 33.258902,57.276878 L 34.314959,57.127274 L 35.821577,59.981362 L 36.473463,56.821496 L 37.52952,56.671893 L 36.597629,60.959809 L 35.345096,61.137245 Z"
         style="font-weight:bold;font-family:'DejaVu Sans';-inkscape-font-specification:'DejaVu Sans Bold'"
         id="path415" />
      <path
         d="M 39.795304,56.664871 Q 39.333791,56.814194 39.189729,57.237382 Q 39.045668,57.66057 39.245897,58.279418 Q 39.445277,58.895643 39.809929,59.154236 Q 40.174581,59.412829 40.636095,59.263506 Q 41.10023,59.113335 41.244292,58.690147 Q 41.388353,58.266959 41.188973,57.650734 Q 40.988744,57.031886 40.624092,56.773293 Q 40.25944,56.5147 39.795304,56.664871 Z M 39.558593,55.933267 Q 40.502598,55.627834 41.21231,55.994936 Q 41.922022,56.362037 42.23,57.313909 Q 42.537131,58.263158 42.176971,58.976417 Q 41.81681,59.689677 40.872806,59.99511 Q 39.931423,60.299695 39.219089,59.933442 Q 38.509377,59.56634 38.202247,58.617091 Q 37.894268,57.66522 38.254428,56.95196 Q 38.617211,56.237852 39.558593,55.933267 Z"
         style="font-weight:bold;font-family:'DejaVu Sans';-inkscape-font-specification:'DejaVu Sans Bold'"
         id="path417" />
      <path
         d="M 42.237125,54.993461 L 43.187809,54.522175 L 44.6592,57.490282 L 46.328452,56.662777 L 46.68467,57.381346 L 44.064736,58.680136 Z"
         style="font-weight:bold;font-family:'DejaVu Sans';-inkscape-font-specification:'DejaVu Sans Bold'"
         id="path419" />
      <path
         d="M 44.32028,54.017251 L 45.201628,53.416533 L 47.814045,55.311524 L 47.003041,52.188709 L 47.884389,51.587991 L 48.942494,55.846518 L 47.897174,56.558998 Z"
         style="font-weight:bold;font-family:'DejaVu Sans';-inkscape-font-specification:'DejaVu Sans Bold'"
         id="path421" />
      <path
         d="M 48.192903,51.26797 L 50.280299,49.307673 L 50.829333,49.892305 L 49.515419,51.126216 L 50.039926,51.68473 L 51.275487,50.524401 L 51.824521,51.109032 L 50.58896,52.269362 L 51.234216,52.956454 L 52.592329,51.681035 L 53.141363,52.265667 L 51.009769,54.267471 Z"
         style="font-weight:bold;font-family:'DejaVu Sans';-inkscape-font-specification:'DejaVu Sans Bold'"
         id="path423" />
      <path
         d="M 52.159174,48.338556 L 54.152466,49.865258 L 54.383734,49.56331 Q 54.779235,49.046935 54.731042,48.579545 Q 54.684524,48.109967 54.196594,47.736252 Q 53.710852,47.364213 53.249235,47.441129 Q 52.787618,47.518046 52.390441,48.036608 Z M 50.877254,48.693273 L 51.557651,47.804934 Q 52.12744,47.061005 52.512845,46.779909 Q 52.897738,46.494949 53.350976,46.428973 Q 53.747931,46.368491 54.122219,46.478115 Q 54.496507,46.587738 54.861908,46.867605 Q 55.231684,47.150824 55.437223,47.485302 Q 55.640575,47.818104 55.685601,48.217108 Q 55.73831,48.67407 55.56398,49.123776 Q 55.387462,49.571805 54.824375,50.306982 L 54.143979,51.195321 Z"
         style="font-weight:bold;font-family:'DejaVu Sans';-inkscape-font-specification:'DejaVu Sans Bold'"
         id="path425" />
    </g>
    <g
       id="g4299"
       transform="matrix(0.23459188,0,0,0.23378166,3.3797853,6.7588134)"
       style="stroke-width:1.65573">
      <g
         id="g16"
         transform="translate(1.367145,3.6611165)"
         style="stroke:#539b70;stroke-width:1.65573;stroke-opacity:1">
        <g
           id="g15"
           transform="matrix(1.3416496,-0.37525525,0.37266764,1.3416496,-125.22297,29.206319)"
           style="stroke:#539b70;stroke-width:0.943605;stroke-linecap:round;stroke-dasharray:none;stroke-opacity:1"
           inkscape:transform-center-x="3.9078407"
           inkscape:transform-center-y="-8.5408119">
          <path
             style="opacity:1;fill:none;stroke:#539b70;stroke-width:0.943605;stroke-linecap:round;stroke-dasharray:none;stroke-opacity:1"
             d="M 94.696718,39.107988 C 94.696718,39.107988 95.66964,36.6047 95.507245,35.325523 C 95.323372,33.877162 93.949926,32.811676 93.548469,31.40797 C 93.34949,30.712236 93.397468,29.968346 93.345838,29.246562 C 93.215561,27.425304 93.248158,25.284824 93.248158,25.284824 C 93.248158,25.284824 94.958852,25.192674 95.409568,26.838336 C 95.76292,28.128505 95.109729,28.118609 95.709881,29.314105 C 96.23863,30.367366 97.699417,30.718146 98.276554,31.74569 C 98.59228,32.307814 98.681819,33.636923 98.681819,33.636923"
             id="path2"
             sodipodi:nodetypes="cssscsssc" />
          <path
             style="opacity:1;fill:none;stroke:#539b70;stroke-width:0.943605;stroke-linecap:round;stroke-dasharray:none;stroke-opacity:1"
             d="M 95.06919,26.060859 C 95.06919,26.060859 95.256527,24.354633 95.507245,23.707951 C 95.973644,22.504969 97.398479,20.330751 97.398479,20.330751 C 97.398479,20.330751 98.558104,20.558197 98.676347,21.137231 C 98.888642,22.176836 97.818289,23.682516 97.60111,24.721112 C 97.392459,25.718926 97.263391,27.760594 97.263391,27.760594"
             id="path3"
             sodipodi:nodetypes="cscssc" />
          <path
             style="opacity:1;fill:none;stroke:#539b70;stroke-width:0.943605;stroke-linecap:round;stroke-dasharray:none;stroke-opacity:1"
             d="M 98.706791,21.432168 C 98.706791,21.432168 99.362604,19.728675 99.625233,19.702102 C 99.824374,19.681952 100.75351,19.632002 100.86958,20.194655 C 101.13872,21.499284 99.751151,23.317398 99.31415,24.57578 C 99.111268,25.159995 98.908171,25.752173 98.821596,26.364523 C 98.722396,27.066182 98.795666,28.490277 98.795666,28.490277"
             id="path4"
             sodipodi:nodetypes="cssssc" />
          <path
             style="opacity:1;fill:none;stroke:#539b70;stroke-width:0.943605;stroke-linecap:round;stroke-dasharray:none;stroke-opacity:1"
             d="M 100.73378,21.476969 C 100.86497,21.416829 101.00105,21.379709 101.10289,21.413079 C 101.53383,21.554285 101.78229,22.126634 101.80284,22.579651 C 101.85324,23.69159 100.67504,24.521913 100.3511,25.586814 C 100.01073,26.705702 100.09161,29.00234 100.09161,29.00234"
             id="path5"
             sodipodi:nodetypes="csssc" />
          <path
             style="opacity:1;fill:none;stroke:#539b70;stroke-width:0.943605;stroke-linecap:round;stroke-dasharray:none;stroke-opacity:1"
             d="M 101.28436,24.03138 C 101.28436,24.03138 101.94369,23.94955 102.13984,24.160999 C 102.4522,24.49772 102.4777,24.924955 102.33094,25.360165 C 102.01653,26.292531 101.48402,27.222454 101.38805,28.127343 C 101.29455,29.00892 101.55732,29.892661 101.67322,30.771573 C 101.81496,31.84638 102.37853,32.920248 102.17467,33.98502 C 101.98475,34.976982 101.28356,35.820451 100.63473,36.594449 C 100.33863,36.947665 99.874247,37.576983 99.874247,37.576983 L 99.434913,40.493857"
             id="path6"
             sodipodi:nodetypes="csssssscc" />
        </g>
        <use
           x="0"
           y="0"
           xlink:href="#g15"
           id="use15"
           transform="matrix(-1,0,0,1,60.76571,2.5259943e-8)"
           style="stroke:#539b70;stroke-width:1.65573;stroke-opacity:1" />
      </g>
      <g
         id="g7318"
         transform="matrix(0.91683863,0,0,0.912593,2.5865292,3.8307158)"
         style="stroke:black;stroke-width:0.957854;stroke-dasharray:none">
        <g
           aria-label="&lt;/&gt;"
           id="text7316"
           style="font-size:17.3617px;line-height:1.4;font-family:'Consolas for Powerline';-inkscape-font-specification:'Consolas for Powerline';letter-spacing:0px;fill:#217844;stroke:black;stroke-width:0.957854;stroke-linecap:round;stroke-dasharray:none">
          <path
             d="M 27.369796,38.41688 L 18.949371,34.701477 V 33.486158 L 27.369796,29.284626 V 31.315945 L 21.570988,34.007009 L 27.369796,36.385562 Z"
             style="font-weight:bold;font-family:'Droid Sans Fallback';-inkscape-font-specification:'Droid Sans Fallback Bold';stroke:black;stroke-width:0.957854;stroke-dasharray:none"
             id="path7320" />
          <path
             d="M 35.217293,27.739435 L 30.599081,40.135689 H 28.255251 L 32.873464,27.739435 Z"
             style="font-weight:bold;font-family:'Droid Sans Fallback';-inkscape-font-specification:'Droid Sans Fallback Bold';stroke:black;stroke-width:0.957854;stroke-dasharray:none"
             id="path7322" />
          <path
             d="M 36.050657,36.385562 L 41.849465,34.007009 L 36.050657,31.315945 V 29.284626 L 44.471081,33.486158 V 34.701477 L 36.050657,38.41688 Z"
             style="font-weight:bold;font-family:'Droid Sans Fallback';-inkscape-font-specification:'Droid Sans Fallback Bold';stroke:black;stroke-width:0.957854;stroke-dasharray:none"
             id="path7324" />
        </g>
      </g>
      <g
         id="g6586"
         transform="matrix(0.91683863,0,0,0.912593,2.5865292,3.8307158)"
         style="stroke-width:1.81011">
        <g
           aria-label="&lt;/&gt;"
           id="text16"
           style="font-size:17.3617px;line-height:1.4;font-family:'Consolas for Powerline';-inkscape-font-specification:'Consolas for Powerline';letter-spacing:0px;fill:#217844;stroke:red;stroke-width:9.64518;stroke-linecap:round">
          <path
             d="M 27.369796,38.41688 L 18.949371,34.701477 V 33.486158 L 27.369796,29.284626 V 31.315945 L 21.570988,34.007009 L 27.369796,36.385562 Z"
             style="font-weight:bold;font-family:'Droid Sans Fallback';-inkscape-font-specification:'Droid Sans Fallback Bold';stroke:none"
             id="path530" />
          <path
             d="M 35.217293,27.739435 L 30.599081,40.135689 H 28.255251 L 32.873464,27.739435 Z"
             style="font-weight:bold;font-family:'Droid Sans Fallback';-inkscape-font-specification:'Droid Sans Fallback Bold';stroke:none"
             id="path532" />
          <path
             d="M 36.050657,36.385562 L 41.849465,34.007009 L 36.050657,31.315945 V 29.284626 L 44.471081,33.486158 V 34.701477 L 36.050657,38.41688 Z"
             style="font-weight:bold;font-family:'Droid Sans Fallback';-inkscape-font-specification:'Droid Sans Fallback Bold';stroke:none"
             id="path534" />
        </g>
      </g>
    </g>
    <g
       aria-label="PURE"
       id="text4305"
       style="font-size:5.64444px;font-family:'CMU Sans Serif Demi Condensed';-inkscape-font-specification:'CMU Sans Serif Demi Condensed, ';fill:#217844;stroke-width:0.537001;stroke-linecap:round;stroke-linejoin:round"
       transform="matrix(0.38775155,0,0,0.38775155,-1.4830341,-1.5607902)">
      <path
         d="M 23.003715,4.4577192 L 24.707084,4.0103744 Q 25.466803,3.8108545 25.960895,4.0429851 Q 26.456953,4.2717501 26.620769,4.8955191 Q 26.785285,5.5219538 26.466345,5.9676058 Q 26.149371,6.4098921 25.389652,6.609412 L 24.71257,6.7872298 L 25.075206,8.1680518 L 24.048919,8.4375788 Z M 24.225321,4.9319168 L 24.51725,6.0435052 L 25.08504,5.8943903 Q 25.383596,5.8159824 25.508399,5.6293315 Q 25.632501,5.4400148 25.562494,5.1734469 Q 25.492487,4.9068789 25.292077,4.8056365 Q 25.091667,4.7043941 24.793111,4.7828019 Z"
         style="font-weight:bold;font-family:'DejaVu Sans';-inkscape-font-specification:'DejaVu Sans Bold'"
         id="path353" />
      <path
         d="M 27.750465,3.3527912 L 28.808281,3.269527 L 29.001843,5.7286074 Q 29.041853,6.2369089 29.22401,6.4437387 Q 29.408697,6.6476047 29.785115,6.6179756 Q 30.164281,6.5881303 30.31205,6.3580956 Q 30.46235,6.125097 30.42234,5.6167955 L 30.228778,3.1577152 L 31.286595,3.074451 L 31.480157,5.5335314 Q 31.548715,6.4045129 31.145372,6.8647741 Q 30.742029,7.3250354 29.84632,7.3955396 Q 28.953357,7.4658275 28.482971,7.0743403 Q 28.012585,6.682853 27.944027,5.8118715 Z"
         style="font-weight:bold;font-family:'DejaVu Sans';-inkscape-font-specification:'DejaVu Sans Bold'"
         id="path355" />
      <path
         d="M 34.392649,5.0815289 Q 34.724302,5.1164348 34.879812,5.0080935 Q 35.038063,4.9000408 35.067776,4.6177244 Q 35.097201,4.338149 34.964625,4.2022586 Q 34.834789,4.0666566 34.503136,4.0317507 L 34.059104,3.9850173 L 33.948617,5.0347955 Z M 33.871882,5.7638843 L 33.708892,7.3125127 L 32.653632,7.2014487 L 33.084329,3.1092324 L 34.695999,3.2788574 Q 35.504575,3.3639584 35.851524,3.6748324 Q 36.201214,3.985995 36.13948,4.5725551 Q 36.096785,4.9782135 35.872032,5.217832 Q 35.65002,5.4577389 35.242344,5.5395402 Q 35.453685,5.6116668 35.605161,5.8049722 Q 35.759666,5.9958253 35.897872,6.3678685 L 36.348413,7.5903169 L 35.224629,7.472041 L 34.832804,6.402651 Q 34.714362,6.0798 34.569957,5.9509784 Q 34.428292,5.8224453 34.170644,5.7953284 Z"
         style="font-weight:bold;font-family:'DejaVu Sans';-inkscape-font-specification:'DejaVu Sans Bold'"
         id="path357" />
      <path
         d="M 38.072397,3.8010053 L 40.830377,4.5714123 L 40.614604,5.3438591 L 38.878589,4.8589254 L 38.672456,5.5968644 L 40.304946,6.05288 L 40.089173,6.8253269 L 38.456682,6.3693112 L 38.203093,7.2771354 L 39.997506,7.7783819 L 39.781733,8.5508287 L 36.965354,7.764109 Z"
         style="font-weight:bold;font-family:'DejaVu Sans';-inkscape-font-specification:'DejaVu Sans Bold'"
         id="path359" />
    </g>
  </g>
  <metadata
     id="metadata714">
    <rdf:RDF>
      <cc:Work
         rdf:about="">
        <dc:title>Pure Certified Organic Code — No AI Involved</dc:title>
        <dc:date>2026-02-20</dc:date>
        <dc:creator>
          <cc:Agent>
            <dc:title>nojhan</dc:title>
          </cc:Agent>
        </dc:creator>
        <dc:language>en</dc:language>
        <dc:description>A stamp circle around two hands offering the symbol of computer code.</dc:description>
      </cc:Work>
    </rdf:RDF>
  </metadata>
</svg>
