<?xml version="1.0" encoding="UTF-8" standalone="no"?>
<!-- Created with Inkscape (http://www.inkscape.org/) -->

<svg
   width="64"
   height="64"
   viewBox="0 0 16.933333 16.933333"
   version="1.1"
   id="svg1"
   inkscape:version="1.4-beta2 (9aaf4f34, 2024-07-30)"
   sodipodi:docname="feature-input.svg"
   xmlns:inkscape="http://www.inkscape.org/namespaces/inkscape"
   xmlns:sodipodi="http://sodipodi.sourceforge.net/DTD/sodipodi-0.dtd"
   xmlns:xlink="http://www.w3.org/1999/xlink"
   xmlns="http://www.w3.org/2000/svg"
   xmlns:svg="http://www.w3.org/2000/svg"
   xmlns:rdf="http://www.w3.org/1999/02/22-rdf-syntax-ns#"
   xmlns:cc="http://creativecommons.org/ns#"
   xmlns:dc="http://purl.org/dc/elements/1.1/">
  <title
     id="title31">OntoWeaver Feature Icon: Input Data</title>
  <sodipodi:namedview
     id="namedview1"
     pagecolor="#ffffff"
     bordercolor="#999999"
     borderopacity="1"
     inkscape:showpageshadow="0"
     inkscape:pageopacity="0"
     inkscape:pagecheckerboard="true"
     inkscape:deskcolor="#d1d1d1"
     inkscape:document-units="mm"
     inkscape:zoom="9.296875"
     inkscape:cx="31.946218"
     inkscape:cy="32"
     inkscape:window-width="1440"
     inkscape:window-height="814"
     inkscape:window-x="0"
     inkscape:window-y="30"
     inkscape:window-maximized="0"
     inkscape:current-layer="layer1"
     showguides="false">
    <sodipodi:guide
       position="0,11.641666"
       orientation="0,1"
       id="guide2"
       inkscape:locked="false"
       inkscape:label=""
       inkscape:color="rgb(0,134,229)" />
    <sodipodi:guide
       position="0,8.4666665"
       orientation="0,1"
       id="guide3"
       inkscape:locked="false"
       inkscape:label=""
       inkscape:color="rgb(0,134,229)" />
    <sodipodi:guide
       position="0,5.2916666"
       orientation="0,1"
       id="guide4"
       inkscape:locked="false"
       inkscape:label=""
       inkscape:color="rgb(0,134,229)" />
    <sodipodi:guide
       position="0,14.816666"
       orientation="0,1"
       id="guide5"
       inkscape:locked="false"
       inkscape:label=""
       inkscape:color="rgb(0,134,229)" />
    <sodipodi:guide
       position="0,2.1166666"
       orientation="0,1"
       id="guide6"
       inkscape:locked="false"
       inkscape:label=""
       inkscape:color="rgb(0,134,229)" />
    <sodipodi:guide
       position="5.3624875,8.4666665"
       orientation="1,0"
       id="guide7"
       inkscape:locked="false" />
    <sodipodi:guide
       position="13.558948,9.6419676"
       orientation="0,-1"
       id="guide23"
       inkscape:locked="false" />
    <sodipodi:guide
       position="13.558948,7.2208587"
       orientation="0,-1"
       id="guide24"
       inkscape:locked="false" />
    <sodipodi:guide
       position="13.558948,10.59885"
       orientation="0,-1"
       id="guide25"
       inkscape:locked="false" />
    <sodipodi:guide
       position="13.558948,6.2639765"
       orientation="0,-1"
       id="guide26"
       inkscape:locked="false" />
    <sodipodi:guide
       position="9.567469,8.4666665"
       orientation="1,0"
       id="guide27"
       inkscape:locked="false" />
    <sodipodi:guide
       position="4.4032102,8.4666665"
       orientation="1,0"
       id="guide28"
       inkscape:locked="false" />
  </sodipodi:namedview>
  <defs
     id="defs1">
    <marker
       style="overflow:visible"
       id="Triangle"
       refX="0"
       refY="0"
       orient="auto-start-reverse"
       inkscape:stockid="Triangle arrow"
       markerWidth="0.6"
       markerHeight="0.6"
       viewBox="0 0 1 1"
       inkscape:isstock="true"
       inkscape:collect="always"
       preserveAspectRatio="xMidYMid">
      <path
         transform="scale(0.5)"
         style="fill:context-stroke;fill-rule:evenodd;stroke:context-stroke;stroke-width:1pt"
         d="M 5.77,0 -2.88,5 V -5 Z"
         id="path135" />
    </marker>
  </defs>
  <g
     inkscape:label="Calque 1"
     inkscape:groupmode="layer"
     id="layer1">
    <rect
       style="fill:#ffffff;stroke:none;stroke-width:0.661458;stroke-linecap:butt;stroke-dasharray:none;fill-opacity:0.34999999"
       id="rect31"
       width="16.933332"
       height="16.933332"
       x="0"
       y="0"
       rx="2.3151045"
       ry="2.3151045" />
    <g
       inkscape:label="Rendered Gears"
       transform="matrix(0.3249735,0,0,0.3249735,12.709013,8.50192)"
       id="g2"
       style="fill:#b3b3b3;stroke-width:1.22125;stroke-dasharray:none">
      <g
         id="g22"
         transform="translate(1.3577026)"
         style="fill:#b3b3b3;stroke-width:1.22125;stroke-dasharray:none">
        <path
           id="path1"
           style="fill:#b3b3b3;stroke:#000000;stroke-width:1.22125;stroke-dasharray:none"
           d="m -2.6494943,-9.7528843 -0.9397926,0.3053133 -0.2337556,1.9431923 0.1256238,0.5072655 0.5502001,1.0399736 -1.5456489,1.1226626 -0.8189395,-0.8443822 -0.4436584,-0.2766902 -1.9193397,-0.3784614 -0.5820036,0.8014476 0.952514,1.7094367 0.4007238,0.3355267 1.0558754,0.5183966 -0.5899545,1.8159784 -1.1592366,-0.201952 -0.521577,0.038164 -1.7762244,0.82211984 V 0.4941952 l 1.7762244,0.82371 0.521577,0.036574 L -6.63765,1.1525271 -6.0476955,2.9685055 -7.1035709,3.4869022 -7.5042947,3.824019 -8.4568087,5.5334558 -7.8748051,6.3333131 -5.9554654,5.9548518 -5.511807,5.6781616 -4.6928675,4.8353695 -3.1472186,5.956442 -3.6974187,6.9964156 -3.8230425,7.503681 -3.5892869,9.4468733 -2.6494943,9.7537768 -1.3169287,8.31785 -1.1213373,7.8344371 -0.95436906,6.6688398 H 0.95542959 L 1.1208077,7.8344371 1.3179892,8.31785 2.6489646,9.7537768 3.5903475,9.4468733 3.824103,7.503681 3.6968891,6.9964156 3.1482792,5.956442 4.6923379,4.8353695 5.5112773,5.6781616 5.9549358,5.9548518 7.8758657,6.3333131 8.4578692,5.5334558 7.503765,3.824019 7.1046314,3.4869022 6.048756,2.9685055 6.6387105,1.1525271 7.7979472,1.3544792 8.317934,1.3179052 10.094158,0.4941952 V -0.49489286 L 8.317934,-1.3170127 7.7979472,-1.3551768 6.6387105,-1.1532248 6.048756,-2.9692032 7.1046314,-3.4875998 7.503765,-3.8231265 8.4578692,-5.5325632 7.8758657,-6.3340108 5.9549358,-5.9555494 5.5112773,-5.6788592 4.6923379,-4.834477 3.1482792,-5.9571396 3.6968891,-6.9971132 3.824103,-7.5043787 3.5903475,-9.447571 2.6489646,-9.7528843 1.3179892,-8.3185476 1.1208077,-7.8335446 0.95542959,-6.6695375 h -1.90979865 l -0.16696824,-1.1640071 -0.1955914,-0.485003 z m 2.64922947473,6.0283486 A 3.7250867,3.7250867 0 0 1 3.7255122,-3.4882652e-4 3.7250867,3.7250867 0 0 1 -2.6482527e-4,3.7254282 3.7250867,3.7250867 0 0 1 -3.7244517,-3.4882652e-4 3.7250867,3.7250867 0 0 1 -2.6482527e-4,-3.7245357 Z" />
      </g>
    </g>
    <path
       style="fill:none;stroke:#000000;stroke-width:0.661458;stroke-linecap:butt;stroke-dasharray:none;marker-end:url(#Triangle)"
       d="M 0.28459384,2.6458336 H 4.3041543 v 3.1594829 h 3.9981036"
       id="path27"
       sodipodi:nodetypes="cccc"
       inkscape:transform-center-y="-4.2410914" />
    <path
       style="fill:none;stroke:#000000;stroke-width:0.661458;stroke-linecap:butt;stroke-dasharray:none;marker-end:url(#Triangle)"
       d="M 0.28459384,8.4666666 H 8.3022579"
       id="path29"
       sodipodi:nodetypes="cc" />
    <use
       x="0"
       y="0"
       xlink:href="#path27"
       inkscape:transform-center-y="4.2410912"
       id="use31"
       transform="matrix(1,0,0,-1,0,16.933333)" />
  </g>
  <metadata
     id="metadata31">
    <rdf:RDF>
      <cc:Work
         rdf:about="">
        <dc:creator>
          <cc:Agent>
            <dc:title>nojhan</dc:title>
          </cc:Agent>
        </dc:creator>
        <dc:date>2026-03-05</dc:date>
        <dc:title>OntoWeaver Feature Icon: Input Data</dc:title>
      </cc:Work>
    </rdf:RDF>
  </metadata>
</svg>
